<svg xmlns="http://www.w3.org/2000/svg" viewBox="0 0 80.55 86.86"><g id="Layer_2" data-name="Layer 2"><g id="Layer_2-2" data-name="Layer 2"><g id="Group_1700" data-name="Group 1700"><circle id="Ellipse_365" data-name="Ellipse 365" cx="32.48" cy="34.71" r="7.33" fill="#f4c750"/><path id="Path_1078" data-name="Path 1078" d="M56.07,79.78A95,95,0,0,1,41.62,74C14,60.15,5.94,27.27,5.94,27.27l-.26-1.6a38.36,38.36,0,0,0,45.9,56.09c7.79,2.53,29,5.1,29,5.1-5.77-.53-24.48-7.09-24.48-7.09ZM32.7,28.19a6.65,6.65,0,1,0,6.65,6.65h0A6.65,6.65,0,0,0,32.7,28.19ZM38.34,7.42a38.35,38.35,0,0,1,24.38,68,25.33,25.33,0,0,1-6.58-2.8C46,68.72,40,58.58,40,58.58l4.46-.26s11.37-.53,10.14-14.52S43,28.93,43,28.93c9.1,10.67,5.95,19.77-3,20.82-16,1.87-25.81-14.63-30-27.54h0C7.38,15.21,6.5,0,6.5,0c.5,5.4,5,16.47,5.54,17.87A38.23,38.23,0,0,1,38.34,7.42Z" fill="#fdfdfd" fill-rule="evenodd"/></g></g></g></svg>