<svg xmlns="http://www.w3.org/2000/svg" viewBox="0 0 76.24 72"><g id="Layer_2" data-name="Layer 2"><g id="Layer_1-2" data-name="Layer 1"><g id="Group_1718" data-name="Group 1718"><g id="Group_1718-2" data-name="Group 1718-2"><path id="Path_1576" data-name="Path 1576" d="M38.12,9.17S9.51,9.83,5.55,30.28,7.2,71.66,38.12,72C69,71.66,74.64,50.72,70.68,30.28S38.12,9.17,38.12,9.17Z" fill="#e0e0f0" fill-rule="evenodd"/><path id="Path_1577" data-name="Path 1577" d="M25.84,25.49s6.76,2.8,12.28,1.66c5.53,1.15,12.28-1.66,12.28-1.66C54.69,23.11,69,26.57,64.26,44.21S38.12,61.27,38.12,61.27,16.77,61.85,12,44.2s9.57-21.1,13.86-18.71Z" fill="#104273" fill-rule="evenodd"/><path id="Path_1578" data-name="Path 1578" d="M38.12,9.17a53.41,53.41,0,0,0-11.23,1.77c1.16,3.68,3.78,9.89,8.34,10.35H41c4.56-.46,7.19-6.67,8.35-10.35A53.31,53.31,0,0,0,38.12,9.17Z" fill="#f4c750" fill-rule="evenodd"/><path id="Path_1579" data-name="Path 1579" d="M70.49,29.38c2,.85,5.39,2.67,5.39,4.44,0,0,2.45,17.8-5.42,17.88h0c1.84-6.53,1.66-14,.22-21.42-.06-.31-.12-.61-.19-.9Z" fill="#f4c750" fill-rule="evenodd"/><path id="Path_1580" data-name="Path 1580" d="M76.22,40.77c-.13,5-1.24,10.89-5.75,10.93h0a37.65,37.65,0,0,0,1.3-9,16.29,16.29,0,0,0,4.45-2Z" fill="#104273" fill-rule="evenodd"/><path id="Path_1581" data-name="Path 1581" d="M69.36,29.54s.25-15.09-11.79-21.86c0,0-7.5.25-6.75-5.19s8.57-.66,8.82,1.94c-.21,1.11,19.21,16.45,10.71,28.48Z" fill="#f4c750" fill-rule="evenodd"/><path id="Path_1582" data-name="Path 1582" d="M52.75,34.39h0a4.14,4.14,0,0,0-4.12,4.12V45.6a4.14,4.14,0,0,0,4.12,4.12h0a4.12,4.12,0,0,0,4.12-4.12V38.51A4.12,4.12,0,0,0,52.75,34.39Z" fill="#fff" fill-rule="evenodd"/><path id="Path_1583" data-name="Path 1583" d="M49,36.76a4.08,4.08,0,0,0-.4,1.75V45.6a4.14,4.14,0,0,0,4.12,4.12h0a1.68,1.68,0,0,0,2.15-2.14V40.49a4.13,4.13,0,0,0-4.12-4.12h0a4.1,4.1,0,0,0-1.75.39Z" fill="#f4c750" fill-rule="evenodd"/><path id="Path_1584" data-name="Path 1584" d="M5.75,29.38c-2,.85-5.39,2.67-5.39,4.44,0,0-2.45,17.8,5.4,17.88h0c-1.83-6.53-1.65-14-.22-21.42.06-.31.12-.61.2-.9Z" fill="#f4c750" fill-rule="evenodd"/><path id="Path_1585" data-name="Path 1585" d="M0,40.77c.13,5,1.25,10.89,5.76,10.93h0a37.68,37.68,0,0,1-1.32-9,16.29,16.29,0,0,1-4.45-2Z" fill="#104273" fill-rule="evenodd"/><path id="Path_1586" data-name="Path 1586" d="M6.87,29.54S6.63,14.45,18.66,7.68c0,0,7.5.25,6.77-5.19s-8.58-.66-8.83,1.94C16.81,5.54-2.61,20.88,5.88,32.91Z" fill="#f4c750" fill-rule="evenodd"/><path id="Path_1587" data-name="Path 1587" d="M23.48,34.39h0a4.12,4.12,0,0,1,4.12,4.12V45.6a4.12,4.12,0,0,1-4.12,4.12h0a4.14,4.14,0,0,1-4.12-4.12V38.51A4.14,4.14,0,0,1,23.48,34.39Z" fill="#fff" fill-rule="evenodd"/><path id="Path_1588" data-name="Path 1588" d="M27.21,36.76a4,4,0,0,1,.39,1.75V45.6a4.13,4.13,0,0,1-4.12,4.12h0a4.1,4.1,0,0,1-1.75-.39,4.1,4.1,0,0,1-.39-1.75V40.49a4.13,4.13,0,0,1,4.12-4.12h0a4,4,0,0,1,1.75.39Z" fill="#f4c750" fill-rule="evenodd"/><path id="Path_1589" data-name="Path 1589" d="M28.31,14.64C29.76,17.78,32,21,35.23,21.29H41c3.23-.32,5.48-3.51,6.94-6.65a55.44,55.44,0,0,0-9.82-1.7,55.33,55.33,0,0,0-9.81,1.7Z" fill="#104273" fill-rule="evenodd"/></g></g></g></g></svg>