<svg xmlns="http://www.w3.org/2000/svg" xmlns:xlink="http://www.w3.org/1999/xlink" viewBox="0 0 119.28 59.69"><defs><linearGradient id="linear-gradient" x1="-80.49" y1="259" x2="-80.49" y2="259.93" gradientTransform="matrix(119.19, 0, 0, -7.13, 9652.9, 1905.15)" gradientUnits="userSpaceOnUse"><stop offset="0" stop-color="#fff"/><stop offset="1" stop-color="#58595b"/></linearGradient></defs><g id="Layer_2" data-name="Layer 2"><g id="Layer_1-2" data-name="Layer 1"><g id="Group_1713" data-name="Group 1713"><g id="Group_1716" data-name="Group 1716"><path id="Path_1081" data-name="Path 1081" d="M119.28,59.69H.09L2,52.57H117.26Z" fill="url(#linear-gradient)"/><g id="Group_1715" data-name="Group 1715"><g id="Group_1713-2" data-name="Group 1713-2"><path id="Path_1082" data-name="Path 1082" d="M30.83,54.19,0,59.69l11-38.8,25-3.68Z" fill="#e6e7e8"/><path id="Path_1083" data-name="Path 1083" d="M88.45,54.19l-28.81,5.5V20.89l23.61-3.68Z" fill="#e6e7e8"/><path id="Path_1084" data-name="Path 1084" d="M59.64,59.69,30.83,54.18l5.2-37,23.62,3.68Z" fill="#d1d3d4"/><path id="Path_1085" data-name="Path 1085" d="M119.28,59.69,88.45,54.18l-5.2-37,25,3.68Z" fill="#d1d3d4"/></g><g id="Group_1714" data-name="Group 1714"><path id="Path_1086" data-name="Path 1086" d="M39.86,23.77H38.59l.09-.76H40Z" fill="#f4c750"/><path id="Path_1087" data-name="Path 1087" d="M41.49,23.77H40.21L40.3,23h1.27Z" fill="#f4c750"/><path id="Path_1088" data-name="Path 1088" d="M43.11,23.77H41.84l.08-.76h1.27Z" fill="#f4c750"/><path id="Path_1089" data-name="Path 1089" d="M44.74,23.77H43.47l.07-.76H44.8Z" fill="#f4c750"/><path id="Path_1090" data-name="Path 1090" d="M46.37,23.77H45.09l.07-.76h1.27Z" fill="#f4c750"/><path id="Path_1091" data-name="Path 1091" d="M48,23.77H46.72l.06-.76h1.27Z" fill="#f4c750"/><path id="Path_1092" data-name="Path 1092" d="M49.62,23.77H48.34l0-.76h1.27Z" fill="#f4c750"/><path id="Path_1093" data-name="Path 1093" d="M51.25,23.77H50L50,23h1.27Z" fill="#f4c750"/><path id="Path_1094" data-name="Path 1094" d="M69.28,23.77H68L68,23h1.27Z" fill="#f4c750"/><path id="Path_1095" data-name="Path 1095" d="M70.9,23.77H69.62l0-.76h1.27Z" fill="#f4c750"/><path id="Path_1096" data-name="Path 1096" d="M77.48,23.77H76.2L76.13,23H77.4Z" fill="#f4c750"/><path id="Path_1097" data-name="Path 1097" d="M39.75,24.72H38.47l.1-.77h1.27Z" fill="#f4c750"/><path id="Path_1098" data-name="Path 1098" d="M41.39,24.72H40.11l.08-.77h1.28Z" fill="#f4c750"/><path id="Path_1099" data-name="Path 1099" d="M44.66,24.72H43.38l.07-.77h1.27Z" fill="#f4c750"/><path id="Path_1100" data-name="Path 1100" d="M46.29,24.72H45l.06-.77h1.28Z" fill="#f4c750"/><path id="Path_1101" data-name="Path 1101" d="M47.93,24.72H46.65L46.7,24H48Z" fill="#f4c750"/><path id="Path_1102" data-name="Path 1102" d="M49.57,24.72H48.28l0-.77h1.28Z" fill="#f4c750"/><path id="Path_1103" data-name="Path 1103" d="M51.2,24.72H49.92L50,24h1.28Z" fill="#f4c750"/><path id="Path_1104" data-name="Path 1104" d="M52.91,24.72H51.62l0-.77h1.28Z" fill="#f4c750"/><path id="Path_1105" data-name="Path 1105" d="M61.08,24.72H59.8V24h1.28Z" fill="#f4c750"/><path id="Path_1106" data-name="Path 1106" d="M62.72,24.72H61.43V24H62.7Z" fill="#f4c750"/><path id="Path_1107" data-name="Path 1107" d="M79.21,24.72H77.93L77.85,24h1.27Z" fill="#f4c750"/><path id="Path_1108" data-name="Path 1108" d="M34.81,24.72H33.53l.12-.77h1.27Z" fill="#f4c750"/><path id="Path_1109" data-name="Path 1109" d="M38.08,24.72H36.8l.1-.77h1.28Z" fill="#f4c750"/><path id="Path_1110" data-name="Path 1110" d="M39.64,25.69H38.36l.09-.78h1.28Z" fill="#f4c750"/><path id="Path_1111" data-name="Path 1111" d="M44.58,25.69H43.29l.07-.78h1.28Z" fill="#f4c750"/><path id="Path_1112" data-name="Path 1112" d="M46.22,25.69H44.93l.07-.78h1.28Z" fill="#f4c750"/><path id="Path_1113" data-name="Path 1113" d="M47.86,25.69H46.57l.06-.78h1.29Z" fill="#f4c750"/><path id="Path_1114" data-name="Path 1114" d="M49.51,25.69H48.22l.05-.78h1.28Z" fill="#f4c750"/><path id="Path_1115" data-name="Path 1115" d="M51.15,25.69H49.86l0-.78h1.28Z" fill="#f4c750"/><path id="Path_1116" data-name="Path 1116" d="M52.87,25.69H51.58l0-.78H52.9Z" fill="#f4c750"/><path id="Path_1117" data-name="Path 1117" d="M62.73,25.69H61.44v-.78h1.29Z" fill="#f4c750"/><path id="Path_1118" data-name="Path 1118" d="M71,25.69H69.74l0-.78H71Z" fill="#f4c750"/><path id="Path_1119" data-name="Path 1119" d="M77.67,25.69H76.39l-.08-.78H77.6Z" fill="#f4c750"/><path id="Path_1120" data-name="Path 1120" d="M79.32,25.69H78L78,24.91h1.28Z" fill="#f4c750"/><path id="Path_1121" data-name="Path 1121" d="M81,25.69H79.67l-.09-.78h1.29Z" fill="#f4c750"/><path id="Path_1122" data-name="Path 1122" d="M87.61,25.69H86.32l-.12-.78h1.29Z" fill="#f4c750"/><path id="Path_1123" data-name="Path 1123" d="M33,25.69H31.75l.12-.78h1.29Z" fill="#f4c750"/><path id="Path_1124" data-name="Path 1124" d="M34.68,25.69H33.39l.11-.78h1.29Z" fill="#f4c750"/><path id="Path_1125" data-name="Path 1125" d="M36.32,25.69H35l.11-.78h1.28Z" fill="#f4c750"/><path id="Path_1126" data-name="Path 1126" d="M38,25.69H36.68l.09-.78h1.29Z" fill="#f4c750"/><path id="Path_1127" data-name="Path 1127" d="M39.53,26.67h-1.3l.1-.79h1.29Z" fill="#f4c750"/><path id="Path_1128" data-name="Path 1128" d="M41.19,26.67h-1.3l.09-.79h1.29Z" fill="#f4c750"/><path id="Path_1129" data-name="Path 1129" d="M44.49,26.67H43.2l.07-.79h1.29Z" fill="#f4c750"/><path id="Path_1130" data-name="Path 1130" d="M46.15,26.67h-1.3l.06-.79H46.2Z" fill="#f4c750"/><path id="Path_1131" data-name="Path 1131" d="M47.8,26.67H46.5l.06-.79h1.29Z" fill="#f4c750"/><path id="Path_1132" data-name="Path 1132" d="M49.45,26.67h-1.3l.05-.79h1.3Z" fill="#f4c750"/><path id="Path_1133" data-name="Path 1133" d="M51.11,26.67H49.8l.05-.79h1.29Z" fill="#f4c750"/><path id="Path_1134" data-name="Path 1134" d="M52.83,26.67h-1.3l0-.79h1.29Z" fill="#f4c750"/><path id="Path_1135" data-name="Path 1135" d="M69.44,26.67h-1.3l0-.79h1.29Z" fill="#f4c750"/><path id="Path_1136" data-name="Path 1136" d="M71.09,26.67h-1.3l-.05-.79H71Z" fill="#f4c750"/><path id="Path_1137" data-name="Path 1137" d="M72.74,26.67h-1.3l0-.79h1.29Z" fill="#f4c750"/><path id="Path_1138" data-name="Path 1138" d="M74.39,26.67h-1.3L73,25.88h1.29Z" fill="#f4c750"/><path id="Path_1139" data-name="Path 1139" d="M76.12,26.67h-1.3l-.07-.79H76Z" fill="#f4c750"/><path id="Path_1140" data-name="Path 1140" d="M77.77,26.67h-1.3l-.07-.79h1.29Z" fill="#f4c750"/><path id="Path_1141" data-name="Path 1141" d="M79.43,26.67h-1.3L78,25.88h1.3Z" fill="#f4c750"/><path id="Path_1142" data-name="Path 1142" d="M81.08,26.67h-1.3l-.09-.79H81Z" fill="#f4c750"/><path id="Path_1143" data-name="Path 1143" d="M82.73,26.67h-1.3l-.1-.79h1.29Z" fill="#f4c750"/><path id="Path_1144" data-name="Path 1144" d="M84.38,26.67h-1.3l-.1-.79h1.29Z" fill="#f4c750"/><path id="Path_1145" data-name="Path 1145" d="M87.76,26.67h-1.3l-.11-.79h1.29Z" fill="#f4c750"/><path id="Path_1146" data-name="Path 1146" d="M89.42,26.67h-1.3L88,25.88h1.29Z" fill="#f4c750"/><path id="Path_1147" data-name="Path 1147" d="M24.55,26.67h-1.3l.16-.79H24.7Z" fill="#f4c750"/><path id="Path_1148" data-name="Path 1148" d="M31.23,26.67h-1.3l.14-.79h1.29Z" fill="#f4c750"/><path id="Path_1149" data-name="Path 1149" d="M32.89,26.67h-1.3l.12-.79H33Z" fill="#f4c750"/><path id="Path_1150" data-name="Path 1150" d="M34.54,26.67h-1.3l.12-.79h1.29Z" fill="#f4c750"/><path id="Path_1151" data-name="Path 1151" d="M37.85,26.67h-1.3l.1-.79H38Z" fill="#f4c750"/><path id="Path_1152" data-name="Path 1152" d="M39.43,27.65h-1.3l.1-.8h1.3Z" fill="#f4c750"/><path id="Path_1153" data-name="Path 1153" d="M42.75,27.65h-1.3l.08-.8h1.3Z" fill="#f4c750"/><path id="Path_1154" data-name="Path 1154" d="M44.41,27.65h-1.3l.07-.8h1.3Z" fill="#f4c750"/><path id="Path_1155" data-name="Path 1155" d="M46.07,27.65h-1.3l.07-.8h1.3Z" fill="#f4c750"/><path id="Path_1156" data-name="Path 1156" d="M47.73,27.65h-1.3l.06-.8h1.3Z" fill="#f4c750"/><path id="Path_1157" data-name="Path 1157" d="M49.4,27.65H48.1l0-.8h1.3Z" fill="#f4c750"/><path id="Path_1158" data-name="Path 1158" d="M51.06,27.65h-1.3l0-.8h1.3Z" fill="#f4c750"/><path id="Path_1159" data-name="Path 1159" d="M52.79,27.65h-1.3l0-.8h1.3Z" fill="#f4c750"/><path id="Path_1160" data-name="Path 1160" d="M62.77,27.65h-1.3v-.8h1.3Z" fill="#f4c750"/><path id="Path_1161" data-name="Path 1161" d="M64.5,27.65H63.2v-.8h1.3Z" fill="#f4c750"/><path id="Path_1162" data-name="Path 1162" d="M66.16,27.65h-1.3l0-.8h1.3Z" fill="#f4c750"/><path id="Path_1163" data-name="Path 1163" d="M69.49,27.65h-1.3l0-.8h1.3Z" fill="#f4c750"/><path id="Path_1164" data-name="Path 1164" d="M71.15,27.65h-1.3l0-.8h1.3Z" fill="#f4c750"/><path id="Path_1165" data-name="Path 1165" d="M72.81,27.65h-1.3l-.05-.8h1.3Z" fill="#f4c750"/><path id="Path_1166" data-name="Path 1166" d="M74.48,27.65h-1.3l-.07-.8h1.3Z" fill="#f4c750"/><path id="Path_1167" data-name="Path 1167" d="M76.21,27.65h-1.3l-.06-.8h1.3Z" fill="#f4c750"/><path id="Path_1168" data-name="Path 1168" d="M77.88,27.65H76.57l-.07-.8h1.3Z" fill="#f4c750"/><path id="Path_1169" data-name="Path 1169" d="M79.54,27.65h-1.3l-.09-.8h1.3Z" fill="#f4c750"/><path id="Path_1170" data-name="Path 1170" d="M81.2,27.65H79.89l-.09-.8h1.3Z" fill="#f4c750"/><path id="Path_1171" data-name="Path 1171" d="M82.86,27.65h-1.3l-.1-.8h1.3Z" fill="#f4c750"/><path id="Path_1172" data-name="Path 1172" d="M84.52,27.65h-1.3l-.1-.8h1.3Z" fill="#f4c750"/><path id="Path_1173" data-name="Path 1173" d="M86.18,27.65h-1.3l-.11-.8h1.3Z" fill="#f4c750"/><path id="Path_1174" data-name="Path 1174" d="M87.92,27.65h-1.3l-.12-.8h1.3Z" fill="#f4c750"/><path id="Path_1175" data-name="Path 1175" d="M89.58,27.65h-1.3l-.13-.8h1.3Z" fill="#f4c750"/><path id="Path_1176" data-name="Path 1176" d="M91.25,27.65H89.94l-.13-.8h1.3Z" fill="#f4c750"/><path id="Path_1177" data-name="Path 1177" d="M92.91,27.65h-1.3l-.15-.8h1.3Z" fill="#f4c750"/><path id="Path_1178" data-name="Path 1178" d="M94.57,27.65h-1.3l-.15-.8h1.3Z" fill="#f4c750"/><path id="Path_1179" data-name="Path 1179" d="M96.23,27.65h-1.3l-.16-.8h1.3Z" fill="#f4c750"/><path id="Path_1180" data-name="Path 1180" d="M22.69,27.65h-1.3l.17-.8h1.3Z" fill="#f4c750"/><path id="Path_1181" data-name="Path 1181" d="M24.35,27.65h-1.3l.17-.8h1.3Z" fill="#f4c750"/><path id="Path_1182" data-name="Path 1182" d="M26,27.65H24.71l.16-.8h1.3Z" fill="#f4c750"/><path id="Path_1183" data-name="Path 1183" d="M27.75,27.65H26.44l.15-.8h1.3Z" fill="#f4c750"/><path id="Path_1184" data-name="Path 1184" d="M29.41,27.65h-1.3l.14-.8h1.3Z" fill="#f4c750"/><path id="Path_1185" data-name="Path 1185" d="M31.07,27.65h-1.3l.14-.8h1.3Z" fill="#f4c750"/><path id="Path_1186" data-name="Path 1186" d="M32.74,27.65h-1.3l.13-.8h1.3Z" fill="#f4c750"/><path id="Path_1187" data-name="Path 1187" d="M34.4,27.65H33.1l.12-.8h1.3Z" fill="#f4c750"/><path id="Path_1188" data-name="Path 1188" d="M36.06,27.65h-1.3l.11-.8h1.3Z" fill="#f4c750"/><path id="Path_1189" data-name="Path 1189" d="M37.73,27.65h-1.3l.09-.8h1.3Z" fill="#f4c750"/><path id="Path_1190" data-name="Path 1190" d="M39.31,28.65H38l.1-.81h1.3Z" fill="#f4c750"/><path id="Path_1191" data-name="Path 1191" d="M41,28.65H39.67l.09-.81h1.31Z" fill="#f4c750"/><path id="Path_1192" data-name="Path 1192" d="M42.65,28.65H41.34l.08-.81h1.31Z" fill="#f4c750"/><path id="Path_1193" data-name="Path 1193" d="M47.67,28.65H46.36l.06-.81h1.3Z" fill="#f4c750"/><path id="Path_1194" data-name="Path 1194" d="M49.34,28.65H48l0-.81h1.31Z" fill="#f4c750"/><path id="Path_1195" data-name="Path 1195" d="M51,28.65H49.7l0-.81h1.31Z" fill="#f4c750"/><path id="Path_1196" data-name="Path 1196" d="M52.76,28.65H51.45l0-.81h1.3Z" fill="#f4c750"/><path id="Path_1197" data-name="Path 1197" d="M54.43,28.65H53.12l0-.81h1.3Z" fill="#f4c750"/><path id="Path_1198" data-name="Path 1198" d="M61.11,28.65H59.8v-.81h1.3Z" fill="#f4c750"/><path id="Path_1199" data-name="Path 1199" d="M62.78,28.65H61.47v-.81h1.31Z" fill="#f4c750"/><path id="Path_1200" data-name="Path 1200" d="M64.53,28.65H63.22l0-.81h1.31Z" fill="#f4c750"/><path id="Path_1201" data-name="Path 1201" d="M66.2,28.65H64.89l0-.81h1.3Z" fill="#f4c750"/><path id="Path_1202" data-name="Path 1202" d="M67.87,28.65H66.56l0-.81h1.3Z" fill="#f4c750"/><path id="Path_1203" data-name="Path 1203" d="M69.54,28.65H68.23l0-.81h1.3Z" fill="#f4c750"/><path id="Path_1204" data-name="Path 1204" d="M71.22,28.65H69.9l0-.81h1.3Z" fill="#f4c750"/><path id="Path_1205" data-name="Path 1205" d="M72.89,28.65H71.58l-.06-.81h1.3Z" fill="#f4c750"/><path id="Path_1206" data-name="Path 1206" d="M74.56,28.65H73.25l-.06-.81h1.3Z" fill="#f4c750"/><path id="Path_1207" data-name="Path 1207" d="M76.31,28.65H75l-.06-.81h1.3Z" fill="#f4c750"/><path id="Path_1208" data-name="Path 1208" d="M78,28.65H76.67l-.08-.81h1.3Z" fill="#f4c750"/><path id="Path_1209" data-name="Path 1209" d="M79.65,28.65H78.34l-.08-.81h1.3Z" fill="#f4c750"/><path id="Path_1210" data-name="Path 1210" d="M81.32,28.65H80l-.1-.81h1.31Z" fill="#f4c750"/><path id="Path_1211" data-name="Path 1211" d="M83,28.65H81.68l-.1-.81h1.3Z" fill="#f4c750"/><path id="Path_1212" data-name="Path 1212" d="M84.66,28.65H83.35l-.11-.81h1.3Z" fill="#f4c750"/><path id="Path_1213" data-name="Path 1213" d="M86.33,28.65H85l-.11-.81h1.3Z" fill="#f4c750"/><path id="Path_1214" data-name="Path 1214" d="M88.08,28.65H86.77l-.12-.81H88Z" fill="#f4c750"/><path id="Path_1215" data-name="Path 1215" d="M89.75,28.65H88.44l-.13-.81h1.3Z" fill="#f4c750"/><path id="Path_1216" data-name="Path 1216" d="M91.42,28.65H90.11L90,27.84h1.3Z" fill="#f4c750"/><path id="Path_1217" data-name="Path 1217" d="M93.09,28.65H91.78l-.14-.81h1.3Z" fill="#f4c750"/><path id="Path_1218" data-name="Path 1218" d="M94.76,28.65H93.45l-.15-.81h1.31Z" fill="#f4c750"/><path id="Path_1219" data-name="Path 1219" d="M96.44,28.65H95.12L95,27.84h1.3Z" fill="#f4c750"/><path id="Path_1220" data-name="Path 1220" d="M98.11,28.65H96.8l-.17-.81h1.3Z" fill="#f4c750"/><path id="Path_1221" data-name="Path 1221" d="M22.48,28.65H21.17l.18-.81h1.3Z" fill="#f4c750"/><path id="Path_1222" data-name="Path 1222" d="M24.16,28.65H22.84l.17-.81h1.31Z" fill="#f4c750"/><path id="Path_1223" data-name="Path 1223" d="M25.83,28.65H24.52l.15-.81H26Z" fill="#f4c750"/><path id="Path_1224" data-name="Path 1224" d="M27.57,28.65H26.26l.15-.81h1.3Z" fill="#f4c750"/><path id="Path_1225" data-name="Path 1225" d="M29.24,28.65H27.93l.15-.81h1.3Z" fill="#f4c750"/><path id="Path_1226" data-name="Path 1226" d="M30.92,28.65H29.61l.13-.81h1.31Z" fill="#f4c750"/><path id="Path_1227" data-name="Path 1227" d="M32.59,28.65H31.28l.13-.81h1.3Z" fill="#f4c750"/><path id="Path_1228" data-name="Path 1228" d="M34.26,28.65H33l.12-.81h1.3Z" fill="#f4c750"/><path id="Path_1229" data-name="Path 1229" d="M35.93,28.65H34.62l.11-.81H36Z" fill="#f4c750"/><path id="Path_1230" data-name="Path 1230" d="M37.6,28.65H36.29l.1-.81H37.7Z" fill="#f4c750"/><path id="Path_1231" data-name="Path 1231" d="M40.88,29.66H39.56l.09-.82H41Z" fill="#f4c750"/><path id="Path_1232" data-name="Path 1232" d="M42.56,29.66H41.24l.08-.82h1.32Z" fill="#f4c750"/><path id="Path_1233" data-name="Path 1233" d="M47.6,29.66H46.28l.06-.82h1.31Z" fill="#f4c750"/><path id="Path_1234" data-name="Path 1234" d="M56.08,29.66H54.76l0-.82h1.31Z" fill="#f4c750"/><path id="Path_1235" data-name="Path 1235" d="M59.44,29.66H58.12v-.82h1.31Z" fill="#f4c750"/><path id="Path_1236" data-name="Path 1236" d="M61.12,29.66H59.8v-.82h1.32Z" fill="#f4c750"/><path id="Path_1237" data-name="Path 1237" d="M64.56,29.66H63.24l0-.82h1.32Z" fill="#f4c750"/><path id="Path_1238" data-name="Path 1238" d="M66.24,29.66H64.92l0-.82h1.31Z" fill="#f4c750"/><path id="Path_1239" data-name="Path 1239" d="M67.92,29.66H66.6l0-.82h1.31Z" fill="#f4c750"/><path id="Path_1240" data-name="Path 1240" d="M69.6,29.66H68.28l0-.82h1.31Z" fill="#f4c750"/><path id="Path_1241" data-name="Path 1241" d="M71.28,29.66H70l0-.82h1.31Z" fill="#f4c750"/><path id="Path_1242" data-name="Path 1242" d="M73,29.66H71.64l0-.82H72.9Z" fill="#f4c750"/><path id="Path_1243" data-name="Path 1243" d="M74.64,29.66H73.33l-.07-.82h1.32Z" fill="#f4c750"/><path id="Path_1244" data-name="Path 1244" d="M76.4,29.66H75.08L75,28.84h1.31Z" fill="#f4c750"/><path id="Path_1245" data-name="Path 1245" d="M78.08,29.66H76.76l-.08-.82H78Z" fill="#f4c750"/><path id="Path_1246" data-name="Path 1246" d="M79.76,29.66H78.44l-.08-.82h1.31Z" fill="#f4c750"/><path id="Path_1247" data-name="Path 1247" d="M81.44,29.66H80.12L80,28.84h1.31Z" fill="#f4c750"/><path id="Path_1248" data-name="Path 1248" d="M83.12,29.66H81.8l-.1-.82H83Z" fill="#f4c750"/><path id="Path_1249" data-name="Path 1249" d="M84.8,29.66H83.49l-.11-.82h1.31Z" fill="#f4c750"/><path id="Path_1250" data-name="Path 1250" d="M86.48,29.66H85.17l-.12-.82h1.31Z" fill="#f4c750"/><path id="Path_1251" data-name="Path 1251" d="M88.24,29.66H86.92l-.12-.82h1.31Z" fill="#f4c750"/><path id="Path_1252" data-name="Path 1252" d="M89.92,29.66H88.6l-.13-.82h1.31Z" fill="#f4c750"/><path id="Path_1253" data-name="Path 1253" d="M91.6,29.66H90.28l-.13-.82h1.31Z" fill="#f4c750"/><path id="Path_1254" data-name="Path 1254" d="M93.28,29.66H92l-.14-.82h1.31Z" fill="#f4c750"/><path id="Path_1255" data-name="Path 1255" d="M95,29.66H93.64l-.15-.82H94.8Z" fill="#f4c750"/><path id="Path_1256" data-name="Path 1256" d="M24,29.66H22.64l.17-.82h1.31Z" fill="#f4c750"/><path id="Path_1257" data-name="Path 1257" d="M25.64,29.66H24.32l.16-.82h1.31Z" fill="#f4c750"/><path id="Path_1258" data-name="Path 1258" d="M27.39,29.66H26.08l.15-.82h1.31Z" fill="#f4c750"/><path id="Path_1259" data-name="Path 1259" d="M29.07,29.66H27.75l.15-.82h1.31Z" fill="#f4c750"/><path id="Path_1260" data-name="Path 1260" d="M30.75,29.66H29.44l.13-.82h1.32Z" fill="#f4c750"/><path id="Path_1261" data-name="Path 1261" d="M32.44,29.66H31.12l.13-.82h1.31Z" fill="#f4c750"/><path id="Path_1262" data-name="Path 1262" d="M34.11,29.66H32.8l.12-.82h1.31Z" fill="#f4c750"/><path id="Path_1263" data-name="Path 1263" d="M35.8,29.66H34.48l.11-.82H35.9Z" fill="#f4c750"/><path id="Path_1264" data-name="Path 1264" d="M37.48,29.66H36.16l.11-.82h1.31Z" fill="#f4c750"/><path id="Path_1265" data-name="Path 1265" d="M39.08,30.68H37.75l.1-.83h1.32Z" fill="#f4c750"/><path id="Path_1266" data-name="Path 1266" d="M40.77,30.68H39.44l.1-.83h1.32Z" fill="#f4c750"/><path id="Path_1267" data-name="Path 1267" d="M42.46,30.68H41.13l.09-.83h1.32Z" fill="#f4c750"/><path id="Path_1268" data-name="Path 1268" d="M44.15,30.68H42.83l.07-.83h1.32Z" fill="#f4c750"/><path id="Path_1269" data-name="Path 1269" d="M56.06,30.68H54.73l0-.83h1.31Z" fill="#f4c750"/><path id="Path_1270" data-name="Path 1270" d="M57.75,30.68H56.42l0-.83h1.32Z" fill="#f4c750"/><path id="Path_1271" data-name="Path 1271" d="M61.13,30.68H59.81v-.83h1.31Z" fill="#f4c750"/><path id="Path_1272" data-name="Path 1272" d="M62.82,30.68H61.49v-.83h1.32Z" fill="#f4c750"/><path id="Path_1273" data-name="Path 1273" d="M64.59,30.68H63.26l0-.83h1.32Z" fill="#f4c750"/><path id="Path_1274" data-name="Path 1274" d="M66.28,30.68H65l0-.83h1.32Z" fill="#f4c750"/><path id="Path_1275" data-name="Path 1275" d="M68,30.68H66.64l0-.83h1.32Z" fill="#f4c750"/><path id="Path_1276" data-name="Path 1276" d="M69.66,30.68H68.33l0-.83h1.32Z" fill="#f4c750"/><path id="Path_1277" data-name="Path 1277" d="M71.35,30.68H70l0-.83h1.31Z" fill="#f4c750"/><path id="Path_1278" data-name="Path 1278" d="M73,30.68H71.71l0-.83H73Z" fill="#f4c750"/><path id="Path_1279" data-name="Path 1279" d="M74.73,30.68H73.4l-.06-.83h1.32Z" fill="#f4c750"/><path id="Path_1280" data-name="Path 1280" d="M76.49,30.68H75.17l-.07-.83h1.32Z" fill="#f4c750"/><path id="Path_1281" data-name="Path 1281" d="M78.19,30.68H76.86l-.08-.83H78.1Z" fill="#f4c750"/><path id="Path_1282" data-name="Path 1282" d="M79.87,30.68H78.55l-.09-.83h1.32Z" fill="#f4c750"/><path id="Path_1283" data-name="Path 1283" d="M81.56,30.68H80.24l-.1-.83h1.32Z" fill="#f4c750"/><path id="Path_1284" data-name="Path 1284" d="M83.26,30.68H81.93l-.1-.83h1.32Z" fill="#f4c750"/><path id="Path_1285" data-name="Path 1285" d="M84.94,30.68H83.62l-.11-.83h1.32Z" fill="#f4c750"/><path id="Path_1286" data-name="Path 1286" d="M86.63,30.68H85.31l-.12-.83h1.32Z" fill="#f4c750"/><path id="Path_1287" data-name="Path 1287" d="M88.4,30.68H87.08L87,29.85h1.32Z" fill="#f4c750"/><path id="Path_1288" data-name="Path 1288" d="M91.79,30.68H90.46l-.14-.83h1.32Z" fill="#f4c750"/><path id="Path_1289" data-name="Path 1289" d="M22.06,30.68H20.74l.18-.83h1.31Z" fill="#f4c750"/><path id="Path_1290" data-name="Path 1290" d="M23.75,30.68H22.43l.17-.83h1.32Z" fill="#f4c750"/><path id="Path_1291" data-name="Path 1291" d="M28.9,30.68H27.57l.15-.83H29Z" fill="#f4c750"/><path id="Path_1292" data-name="Path 1292" d="M30.59,30.68H29.26l.14-.83h1.32Z" fill="#f4c750"/><path id="Path_1293" data-name="Path 1293" d="M32.28,30.68H31l.13-.83h1.32Z" fill="#f4c750"/><path id="Path_1294" data-name="Path 1294" d="M34,30.68H32.65l.12-.83h1.32Z" fill="#f4c750"/><path id="Path_1295" data-name="Path 1295" d="M35.66,30.68H34.34l.11-.83h1.32Z" fill="#f4c750"/><path id="Path_1296" data-name="Path 1296" d="M37.35,30.68H36l.1-.83h1.32Z" fill="#f4c750"/><path id="Path_1297" data-name="Path 1297" d="M39,31.71H37.63l.1-.83h1.33Z" fill="#f4c750"/><path id="Path_1298" data-name="Path 1298" d="M40.66,31.71H39.33l.09-.83h1.33Z" fill="#f4c750"/><path id="Path_1299" data-name="Path 1299" d="M42.36,31.71H41l.08-.83h1.33Z" fill="#f4c750"/><path id="Path_1300" data-name="Path 1300" d="M44.06,31.71H42.73l.08-.83h1.32Z" fill="#f4c750"/><path id="Path_1301" data-name="Path 1301" d="M45.76,31.71H44.43l.07-.83h1.33Z" fill="#f4c750"/><path id="Path_1302" data-name="Path 1302" d="M57.74,31.71H56.4l0-.83h1.33Z" fill="#f4c750"/><path id="Path_1303" data-name="Path 1303" d="M59.44,31.71H58.11v-.83h1.33Z" fill="#f4c750"/><path id="Path_1304" data-name="Path 1304" d="M61.14,31.71H59.81v-.83h1.32Z" fill="#f4c750"/><path id="Path_1305" data-name="Path 1305" d="M62.84,31.71H61.5v-.83h1.32Z" fill="#f4c750"/><path id="Path_1306" data-name="Path 1306" d="M64.61,31.71H63.28l0-.83h1.33Z" fill="#f4c750"/><path id="Path_1307" data-name="Path 1307" d="M66.31,31.71H65l0-.83h1.32Z" fill="#f4c750"/><path id="Path_1308" data-name="Path 1308" d="M68,31.71H66.68l0-.83H68Z" fill="#f4c750"/><path id="Path_1309" data-name="Path 1309" d="M69.71,31.71H68.38l0-.83h1.33Z" fill="#f4c750"/><path id="Path_1310" data-name="Path 1310" d="M71.42,31.71H70.09l0-.83h1.33Z" fill="#f4c750"/><path id="Path_1311" data-name="Path 1311" d="M73.11,31.71H71.78l-.06-.83h1.33Z" fill="#f4c750"/><path id="Path_1312" data-name="Path 1312" d="M74.81,31.71H73.48l-.06-.83h1.33Z" fill="#f4c750"/><path id="Path_1313" data-name="Path 1313" d="M76.59,31.71H75.26l-.08-.83h1.33Z" fill="#f4c750"/><path id="Path_1314" data-name="Path 1314" d="M78.29,31.71H77l-.08-.83H78.2Z" fill="#f4c750"/><path id="Path_1315" data-name="Path 1315" d="M80,31.71H78.66l-.09-.83H79.9Z" fill="#f4c750"/><path id="Path_1316" data-name="Path 1316" d="M81.69,31.71H80.35l-.09-.83h1.33Z" fill="#f4c750"/><path id="Path_1317" data-name="Path 1317" d="M83.39,31.71H82.06l-.1-.83h1.33Z" fill="#f4c750"/><path id="Path_1318" data-name="Path 1318" d="M85.09,31.71H83.76l-.11-.83H85Z" fill="#f4c750"/><path id="Path_1319" data-name="Path 1319" d="M86.79,31.71H85.46l-.12-.83h1.32Z" fill="#f4c750"/><path id="Path_1320" data-name="Path 1320" d="M88.56,31.71H87.23l-.12-.83h1.32Z" fill="#f4c750"/><path id="Path_1321" data-name="Path 1321" d="M21.85,31.71H20.52l.18-.83H22Z" fill="#f4c750"/><path id="Path_1322" data-name="Path 1322" d="M28.73,31.71H27.39l.15-.83h1.33Z" fill="#f4c750"/><path id="Path_1323" data-name="Path 1323" d="M30.43,31.71H29.09l.14-.83h1.33Z" fill="#f4c750"/><path id="Path_1324" data-name="Path 1324" d="M32.13,31.71H30.79l.14-.83h1.32Z" fill="#f4c750"/><path id="Path_1325" data-name="Path 1325" d="M33.82,31.71H32.49l.13-.83h1.32Z" fill="#f4c750"/><path id="Path_1326" data-name="Path 1326" d="M35.52,31.71H34.19l.12-.83h1.32Z" fill="#f4c750"/><path id="Path_1327" data-name="Path 1327" d="M37.23,31.71H35.89l.11-.83h1.33Z" fill="#f4c750"/><path id="Path_1328" data-name="Path 1328" d="M38.84,32.76H37.5l.1-.85h1.34Z" fill="#f4c750"/><path id="Path_1329" data-name="Path 1329" d="M40.56,32.76H39.21l.1-.85h1.33Z" fill="#f4c750"/><path id="Path_1330" data-name="Path 1330" d="M42.26,32.76H40.92l.09-.85h1.33Z" fill="#f4c750"/><path id="Path_1331" data-name="Path 1331" d="M66.35,32.76H65l0-.85h1.33Z" fill="#f4c750"/><path id="Path_1332" data-name="Path 1332" d="M68.06,32.76H66.72l0-.85H68Z" fill="#f4c750"/><path id="Path_1333" data-name="Path 1333" d="M71.48,32.76H70.14l0-.85h1.34Z" fill="#f4c750"/><path id="Path_1334" data-name="Path 1334" d="M73.19,32.76H71.85l-.06-.85h1.34Z" fill="#f4c750"/><path id="Path_1335" data-name="Path 1335" d="M74.9,32.76H73.56l-.06-.85h1.33Z" fill="#f4c750"/><path id="Path_1336" data-name="Path 1336" d="M76.69,32.76H75.35l-.08-.85h1.34Z" fill="#f4c750"/><path id="Path_1337" data-name="Path 1337" d="M78.4,32.76H77.05L77,31.91h1.33Z" fill="#f4c750"/><path id="Path_1338" data-name="Path 1338" d="M80.11,32.76H78.76l-.09-.85H80Z" fill="#f4c750"/><path id="Path_1339" data-name="Path 1339" d="M81.82,32.76H80.47l-.1-.85h1.34Z" fill="#f4c750"/><path id="Path_1340" data-name="Path 1340" d="M83.52,32.76H82.18l-.1-.85h1.34Z" fill="#f4c750"/><path id="Path_1341" data-name="Path 1341" d="M85.24,32.76H83.9l-.12-.85h1.34Z" fill="#f4c750"/><path id="Path_1342" data-name="Path 1342" d="M86.94,32.76H85.6l-.11-.85h1.33Z" fill="#f4c750"/><path id="Path_1343" data-name="Path 1343" d="M88.73,32.76H87.39l-.13-.85H88.6Z" fill="#f4c750"/><path id="Path_1344" data-name="Path 1344" d="M30.26,32.76H28.91l.15-.85h1.33Z" fill="#f4c750"/><path id="Path_1345" data-name="Path 1345" d="M32,32.76H30.63l.13-.85H32.1Z" fill="#f4c750"/><path id="Path_1346" data-name="Path 1346" d="M33.68,32.76H32.34l.12-.85H33.8Z" fill="#f4c750"/><path id="Path_1347" data-name="Path 1347" d="M35.39,32.76H34.05l.11-.85H35.5Z" fill="#f4c750"/><path id="Path_1348" data-name="Path 1348" d="M37.1,32.76H35.76l.11-.85H37.2Z" fill="#f4c750"/><path id="Path_1349" data-name="Path 1349" d="M38.72,33.81H37.38l.1-.85h1.34Z" fill="#f4c750"/><path id="Path_1350" data-name="Path 1350" d="M40.45,33.81H39.1l.1-.85h1.34Z" fill="#f4c750"/><path id="Path_1351" data-name="Path 1351" d="M42.16,33.81H40.81L40.9,33h1.34Z" fill="#f4c750"/><path id="Path_1352" data-name="Path 1352" d="M57.72,33.81H56.37V33h1.35Z" fill="#f4c750"/><path id="Path_1353" data-name="Path 1353" d="M59.43,33.81H58.08V33h1.34Z" fill="#f4c750"/><path id="Path_1354" data-name="Path 1354" d="M64.67,33.81H63.32l0-.85h1.35Z" fill="#f4c750"/><path id="Path_1355" data-name="Path 1355" d="M66.39,33.81H65L65,33h1.34Z" fill="#f4c750"/><path id="Path_1356" data-name="Path 1356" d="M68.11,33.81H66.76l0-.85h1.34Z" fill="#f4c750"/><path id="Path_1357" data-name="Path 1357" d="M69.83,33.81H68.48l0-.85h1.34Z" fill="#f4c750"/><path id="Path_1358" data-name="Path 1358" d="M71.55,33.81H70.2l0-.85H71.5Z" fill="#f4c750"/><path id="Path_1359" data-name="Path 1359" d="M73.27,33.81H71.92L71.86,33h1.35Z" fill="#f4c750"/><path id="Path_1360" data-name="Path 1360" d="M75,33.81H73.64L73.57,33h1.35Z" fill="#f4c750"/><path id="Path_1361" data-name="Path 1361" d="M76.78,33.81H75.43L75.36,33H76.7Z" fill="#f4c750"/><path id="Path_1362" data-name="Path 1362" d="M78.5,33.81H77.15L77.07,33h1.34Z" fill="#f4c750"/><path id="Path_1363" data-name="Path 1363" d="M80.22,33.81H78.87L78.79,33h1.34Z" fill="#f4c750"/><path id="Path_1364" data-name="Path 1364" d="M81.94,33.81H80.59l-.1-.85h1.35Z" fill="#f4c750"/><path id="Path_1365" data-name="Path 1365" d="M83.66,33.81H82.32l-.1-.85h1.34Z" fill="#f4c750"/><path id="Path_1366" data-name="Path 1366" d="M85.38,33.81H84L83.92,33h1.34Z" fill="#f4c750"/><path id="Path_1367" data-name="Path 1367" d="M87.1,33.81H85.75L85.63,33H87Z" fill="#f4c750"/><path id="Path_1368" data-name="Path 1368" d="M88.9,33.81H87.55L87.42,33h1.34Z" fill="#f4c750"/><path id="Path_1369" data-name="Path 1369" d="M31.81,33.81H30.46L30.6,33h1.34Z" fill="#f4c750"/><path id="Path_1370" data-name="Path 1370" d="M33.53,33.81H32.18l.13-.85h1.34Z" fill="#f4c750"/><path id="Path_1371" data-name="Path 1371" d="M35.25,33.81H33.9L34,33h1.34Z" fill="#f4c750"/><path id="Path_1372" data-name="Path 1372" d="M37,33.81H35.62l.11-.85h1.34Z" fill="#f4c750"/><path id="Path_1373" data-name="Path 1373" d="M38.6,34.88H37.25l.1-.86H38.7Z" fill="#f4c750"/><path id="Path_1374" data-name="Path 1374" d="M56,34.88H54.62l0-.86H56Z" fill="#f4c750"/><path id="Path_1375" data-name="Path 1375" d="M57.71,34.88H56.35V34h1.35Z" fill="#f4c750"/><path id="Path_1376" data-name="Path 1376" d="M59.43,34.88H58.08V34h1.35Z" fill="#f4c750"/><path id="Path_1377" data-name="Path 1377" d="M61.17,34.88H59.81V34h1.35Z" fill="#f4c750"/><path id="Path_1378" data-name="Path 1378" d="M66.43,34.88H65.07l0-.86H66.4Z" fill="#f4c750"/><path id="Path_1379" data-name="Path 1379" d="M68.16,34.88H66.8l0-.86h1.35Z" fill="#f4c750"/><path id="Path_1380" data-name="Path 1380" d="M69.89,34.88H68.53l0-.86h1.35Z" fill="#f4c750"/><path id="Path_1381" data-name="Path 1381" d="M71.62,34.88H70.26L70.21,34h1.35Z" fill="#f4c750"/><path id="Path_1382" data-name="Path 1382" d="M73.35,34.88H72L71.93,34h1.35Z" fill="#f4c750"/><path id="Path_1383" data-name="Path 1383" d="M75.07,34.88H73.72L73.65,34H75Z" fill="#f4c750"/><path id="Path_1384" data-name="Path 1384" d="M76.88,34.88H75.53L75.45,34H76.8Z" fill="#f4c750"/><path id="Path_1385" data-name="Path 1385" d="M78.61,34.88H77.26L77.17,34h1.35Z" fill="#f4c750"/><path id="Path_1386" data-name="Path 1386" d="M80.34,34.88H79L78.89,34h1.36Z" fill="#f4c750"/><path id="Path_1387" data-name="Path 1387" d="M82.07,34.88H80.71l-.1-.86H82Z" fill="#f4c750"/><path id="Path_1388" data-name="Path 1388" d="M83.8,34.88H82.45L82.34,34h1.35Z" fill="#f4c750"/><path id="Path_1389" data-name="Path 1389" d="M85.53,34.88H84.18L84.07,34h1.34Z" fill="#f4c750"/><path id="Path_1390" data-name="Path 1390" d="M87.27,34.88H85.91L85.79,34h1.35Z" fill="#f4c750"/><path id="Path_1391" data-name="Path 1391" d="M89.06,34.88H87.71L87.58,34h1.35Z" fill="#f4c750"/><path id="Path_1392" data-name="Path 1392" d="M31.65,34.88H30.29l.14-.86h1.35Z" fill="#f4c750"/><path id="Path_1393" data-name="Path 1393" d="M33.38,34.88H32l.13-.86H33.5Z" fill="#f4c750"/><path id="Path_1394" data-name="Path 1394" d="M35.11,34.88H33.75l.12-.86h1.35Z" fill="#f4c750"/><path id="Path_1395" data-name="Path 1395" d="M36.84,34.88H35.48l.11-.86h1.35Z" fill="#f4c750"/><path id="Path_1396" data-name="Path 1396" d="M40.22,36H38.86l.1-.87h1.35Z" fill="#f4c750"/><path id="Path_1397" data-name="Path 1397" d="M56,36H54.59l0-.87H56Z" fill="#f4c750"/><path id="Path_1398" data-name="Path 1398" d="M57.69,36H56.33l0-.87H57.7Z" fill="#f4c750"/><path id="Path_1399" data-name="Path 1399" d="M59.43,36H58.07v-.87h1.35Z" fill="#f4c750"/><path id="Path_1400" data-name="Path 1400" d="M61.17,36H59.81v-.87h1.36Z" fill="#f4c750"/><path id="Path_1401" data-name="Path 1401" d="M62.91,36H61.55v-.87H62.9Z" fill="#f4c750"/><path id="Path_1402" data-name="Path 1402" d="M64.73,36H63.37l0-.87h1.36Z" fill="#f4c750"/><path id="Path_1403" data-name="Path 1403" d="M66.47,36H65.1l0-.87h1.36Z" fill="#f4c750"/><path id="Path_1404" data-name="Path 1404" d="M68.21,36H66.84l0-.87h1.36Z" fill="#f4c750"/><path id="Path_1405" data-name="Path 1405" d="M70,36H68.58l0-.87H69.9Z" fill="#f4c750"/><path id="Path_1406" data-name="Path 1406" d="M71.69,36H70.32l0-.87h1.36Z" fill="#f4c750"/><path id="Path_1407" data-name="Path 1407" d="M73.43,36H72.06L72,35.09h1.36Z" fill="#f4c750"/><path id="Path_1408" data-name="Path 1408" d="M75.17,36H73.8l-.06-.87h1.35Z" fill="#f4c750"/><path id="Path_1409" data-name="Path 1409" d="M77,36H75.62l-.08-.87H76.9Z" fill="#f4c750"/><path id="Path_1410" data-name="Path 1410" d="M78.72,36H77.36l-.08-.87h1.36Z" fill="#f4c750"/><path id="Path_1411" data-name="Path 1411" d="M80.46,36H79.1L79,35.09h1.36Z" fill="#f4c750"/><path id="Path_1412" data-name="Path 1412" d="M82.2,36H80.84l-.1-.87H82.1Z" fill="#f4c750"/><path id="Path_1413" data-name="Path 1413" d="M83.94,36H82.58l-.11-.87h1.36Z" fill="#f4c750"/><path id="Path_1414" data-name="Path 1414" d="M87.42,36H86.06l-.13-.87h1.36Z" fill="#f4c750"/><path id="Path_1415" data-name="Path 1415" d="M31.49,36H30.12l.14-.87h1.36Z" fill="#f4c750"/><path id="Path_1416" data-name="Path 1416" d="M33.22,36H31.86l.13-.87h1.36Z" fill="#f4c750"/><path id="Path_1417" data-name="Path 1417" d="M35,36H33.6l.12-.87h1.36Z" fill="#f4c750"/><path id="Path_1418" data-name="Path 1418" d="M38.36,37.06H37l.1-.89h1.37Z" fill="#f4c750"/><path id="Path_1419" data-name="Path 1419" d="M40.11,37.06H38.74l.09-.89H40.2Z" fill="#f4c750"/><path id="Path_1420" data-name="Path 1420" d="M54.18,37.06H52.81l0-.89h1.37Z" fill="#f4c750"/><path id="Path_1421" data-name="Path 1421" d="M55.93,37.06H54.56l0-.89H56Z" fill="#f4c750"/><path id="Path_1422" data-name="Path 1422" d="M57.68,37.06H56.31l0-.89h1.36Z" fill="#f4c750"/><path id="Path_1423" data-name="Path 1423" d="M59.43,37.06H58.06v-.89h1.37Z" fill="#f4c750"/><path id="Path_1424" data-name="Path 1424" d="M61.18,37.06H59.81v-.89h1.37Z" fill="#f4c750"/><path id="Path_1425" data-name="Path 1425" d="M62.93,37.06H61.56v-.89h1.37Z" fill="#f4c750"/><path id="Path_1426" data-name="Path 1426" d="M64.76,37.06H63.38l0-.89h1.37Z" fill="#f4c750"/><path id="Path_1427" data-name="Path 1427" d="M66.51,37.06H65.14l0-.89h1.37Z" fill="#f4c750"/><path id="Path_1428" data-name="Path 1428" d="M68.26,37.06H66.89l0-.89h1.37Z" fill="#f4c750"/><path id="Path_1429" data-name="Path 1429" d="M70,37.06H68.64l0-.89H70Z" fill="#f4c750"/><path id="Path_1430" data-name="Path 1430" d="M73.51,37.06H72.14l-.06-.89h1.36Z" fill="#f4c750"/><path id="Path_1431" data-name="Path 1431" d="M75.26,37.06H73.89l-.07-.89h1.36Z" fill="#f4c750"/><path id="Path_1432" data-name="Path 1432" d="M77.09,37.06H75.71l-.07-.89H77Z" fill="#f4c750"/><path id="Path_1433" data-name="Path 1433" d="M78.83,37.06H77.46l-.08-.89h1.37Z" fill="#f4c750"/><path id="Path_1434" data-name="Path 1434" d="M80.58,37.06H79.21l-.09-.89h1.37Z" fill="#f4c750"/><path id="Path_1435" data-name="Path 1435" d="M33.07,37.06H31.7l.13-.89H33.2Z" fill="#f4c750"/><path id="Path_1436" data-name="Path 1436" d="M34.82,37.06H33.45l.12-.89h1.37Z" fill="#f4c750"/><path id="Path_1437" data-name="Path 1437" d="M36.57,37.06H35.2l.11-.89h1.37Z" fill="#f4c750"/><path id="Path_1438" data-name="Path 1438" d="M38.23,38.16H36.85l.11-.89h1.37Z" fill="#f4c750"/><path id="Path_1439" data-name="Path 1439" d="M40,38.16H38.61l.1-.89h1.37Z" fill="#f4c750"/><path id="Path_1440" data-name="Path 1440" d="M41.75,38.16H40.37l.09-.89h1.38Z" fill="#f4c750"/><path id="Path_1441" data-name="Path 1441" d="M43.51,38.16H42.13l.09-.89h1.37Z" fill="#f4c750"/><path id="Path_1442" data-name="Path 1442" d="M54.15,38.16H52.77l0-.89h1.38Z" fill="#f4c750"/><path id="Path_1443" data-name="Path 1443" d="M55.91,38.16H54.53l0-.89h1.37Z" fill="#f4c750"/><path id="Path_1444" data-name="Path 1444" d="M57.67,38.16H56.29l0-.89h1.37Z" fill="#f4c750"/><path id="Path_1445" data-name="Path 1445" d="M59.43,38.16H58.05v-.89h1.37Z" fill="#f4c750"/><path id="Path_1446" data-name="Path 1446" d="M61.19,38.16H59.81v-.89h1.37Z" fill="#f4c750"/><path id="Path_1447" data-name="Path 1447" d="M63,38.16H61.57v-.89h1.37Z" fill="#f4c750"/><path id="Path_1448" data-name="Path 1448" d="M64.79,38.16H63.41l0-.89h1.38Z" fill="#f4c750"/><path id="Path_1449" data-name="Path 1449" d="M66.55,38.16H65.17l0-.89h1.38Z" fill="#f4c750"/><path id="Path_1450" data-name="Path 1450" d="M68.31,38.16H66.93l0-.89h1.37Z" fill="#f4c750"/><path id="Path_1451" data-name="Path 1451" d="M70.07,38.16H68.69l0-.89H70Z" fill="#f4c750"/><path id="Path_1452" data-name="Path 1452" d="M73.59,38.16H72.21l-.06-.89h1.37Z" fill="#f4c750"/><path id="Path_1453" data-name="Path 1453" d="M75.35,38.16H74l-.07-.89h1.37Z" fill="#f4c750"/><path id="Path_1454" data-name="Path 1454" d="M79,38.16H77.57l-.09-.89h1.38Z" fill="#f4c750"/><path id="Path_1455" data-name="Path 1455" d="M80.71,38.16H79.33l-.09-.89h1.37Z" fill="#f4c750"/><path id="Path_1456" data-name="Path 1456" d="M86,38.16H84.61l-.12-.89h1.38Z" fill="#f4c750"/><path id="Path_1457" data-name="Path 1457" d="M34.67,38.16H33.29l.13-.89h1.37Z" fill="#f4c750"/><path id="Path_1458" data-name="Path 1458" d="M36.43,38.16H35.05l.12-.89h1.37Z" fill="#f4c750"/><path id="Path_1459" data-name="Path 1459" d="M38.11,39.28H36.72l.11-.9h1.38Z" fill="#f4c750"/><path id="Path_1460" data-name="Path 1460" d="M39.88,39.28H38.49l.1-.9H40Z" fill="#f4c750"/><path id="Path_1461" data-name="Path 1461" d="M41.65,39.28H40.26l.09-.9h1.38Z" fill="#f4c750"/><path id="Path_1462" data-name="Path 1462" d="M43.42,39.28H42l.08-.9h1.38Z" fill="#f4c750"/><path id="Path_1463" data-name="Path 1463" d="M45.19,39.28H43.8l.07-.9h1.39Z" fill="#f4c750"/><path id="Path_1464" data-name="Path 1464" d="M54.12,39.28H52.73l0-.9h1.39Z" fill="#f4c750"/><path id="Path_1465" data-name="Path 1465" d="M55.89,39.28H54.5l0-.9h1.38Z" fill="#f4c750"/><path id="Path_1466" data-name="Path 1466" d="M57.66,39.28H56.27l0-.9h1.38Z" fill="#f4c750"/><path id="Path_1467" data-name="Path 1467" d="M59.43,39.28H58v-.9h1.38Z" fill="#f4c750"/><path id="Path_1468" data-name="Path 1468" d="M61.2,39.28H59.81v-.9H61.2Z" fill="#f4c750"/><path id="Path_1469" data-name="Path 1469" d="M63,39.28H61.58v-.9H63Z" fill="#f4c750"/><path id="Path_1470" data-name="Path 1470" d="M64.82,39.28H63.43l0-.9H64.8Z" fill="#f4c750"/><path id="Path_1471" data-name="Path 1471" d="M66.59,39.28H65.2l0-.9h1.39Z" fill="#f4c750"/><path id="Path_1472" data-name="Path 1472" d="M75.44,39.28H74.06l-.07-.9h1.38Z" fill="#f4c750"/><path id="Path_1473" data-name="Path 1473" d="M79.06,39.28H77.68l-.09-.9H79Z" fill="#f4c750"/><path id="Path_1474" data-name="Path 1474" d="M80.83,39.28H79.44l-.09-.9h1.38Z" fill="#f4c750"/><path id="Path_1475" data-name="Path 1475" d="M86.14,39.28H84.76l-.12-.9H86Z" fill="#f4c750"/><path id="Path_1476" data-name="Path 1476" d="M39.76,40.41h-1.4l.1-.91h1.39Z" fill="#f4c750"/><path id="Path_1477" data-name="Path 1477" d="M41.54,40.41h-1.4l.09-.91h1.39Z" fill="#f4c750"/><path id="Path_1478" data-name="Path 1478" d="M43.32,40.41h-1.4L42,39.5h1.39Z" fill="#f4c750"/><path id="Path_1479" data-name="Path 1479" d="M45.1,40.41H43.7l.08-.91h1.39Z" fill="#f4c750"/><path id="Path_1480" data-name="Path 1480" d="M46.88,40.41h-1.4l.07-.91h1.39Z" fill="#f4c750"/><path id="Path_1481" data-name="Path 1481" d="M48.66,40.41h-1.4l.06-.91h1.39Z" fill="#f4c750"/><path id="Path_1482" data-name="Path 1482" d="M55.87,40.41h-1.4l0-.91h1.39Z" fill="#f4c750"/><path id="Path_1483" data-name="Path 1483" d="M57.65,40.41h-1.4V39.5h1.39Z" fill="#f4c750"/><path id="Path_1484" data-name="Path 1484" d="M59.43,40.41H58V39.5h1.39Z" fill="#f4c750"/><path id="Path_1485" data-name="Path 1485" d="M61.21,40.41h-1.4V39.5H61.2Z" fill="#f4c750"/><path id="Path_1486" data-name="Path 1486" d="M63,40.41h-1.4V39.5H63Z" fill="#f4c750"/><path id="Path_1487" data-name="Path 1487" d="M64.86,40.41H63.45V39.5h1.39Z" fill="#f4c750"/><path id="Path_1488" data-name="Path 1488" d="M66.63,40.41h-1.4l0-.91h1.4Z" fill="#f4c750"/><path id="Path_1489" data-name="Path 1489" d="M68.41,40.41H67l0-.91h1.39Z" fill="#f4c750"/><path id="Path_1490" data-name="Path 1490" d="M81,40.41h-1.4l-.1-.91h1.39Z" fill="#f4c750"/><path id="Path_1491" data-name="Path 1491" d="M82.74,40.41h-1.4l-.1-.91h1.39Z" fill="#f4c750"/><path id="Path_1492" data-name="Path 1492" d="M88.08,40.41h-1.4l-.13-.91h1.39Z" fill="#f4c750"/><path id="Path_1493" data-name="Path 1493" d="M89.94,40.41h-1.4l-.14-.91h1.39Z" fill="#f4c750"/><path id="Path_1494" data-name="Path 1494" d="M39.64,41.56h-1.4l.09-.93h1.41Z" fill="#f4c750"/><path id="Path_1495" data-name="Path 1495" d="M41.43,41.56H40l.1-.93h1.4Z" fill="#f4c750"/><path id="Path_1496" data-name="Path 1496" d="M43.22,41.56h-1.4l.09-.93h1.4Z" fill="#f4c750"/><path id="Path_1497" data-name="Path 1497" d="M45,41.56h-1.4l.08-.93h1.4Z" fill="#f4c750"/><path id="Path_1498" data-name="Path 1498" d="M46.81,41.56H45.4l.07-.93h1.4Z" fill="#f4c750"/><path id="Path_1499" data-name="Path 1499" d="M48.6,41.56H47.19l.06-.93h1.4Z" fill="#f4c750"/><path id="Path_1500" data-name="Path 1500" d="M61.22,41.56h-1.4v-.93h1.4Z" fill="#f4c750"/><path id="Path_1501" data-name="Path 1501" d="M63,41.56h-1.4v-.93H63Z" fill="#f4c750"/><path id="Path_1502" data-name="Path 1502" d="M64.88,41.56h-1.4l0-.93h1.4Z" fill="#f4c750"/><path id="Path_1503" data-name="Path 1503" d="M66.67,41.56h-1.4l0-.93h1.4Z" fill="#f4c750"/><path id="Path_1504" data-name="Path 1504" d="M82.88,41.56H81.47l-.1-.93h1.4Z" fill="#f4c750"/><path id="Path_1505" data-name="Path 1505" d="M84.67,41.56h-1.4l-.11-.93h1.4Z" fill="#f4c750"/><path id="Path_1506" data-name="Path 1506" d="M90.12,41.56h-1.4l-.14-.93H90Z" fill="#f4c750"/><path id="Path_1507" data-name="Path 1507" d="M91.92,41.56h-1.4l-.15-.93h1.4Z" fill="#f4c750"/><path id="Path_1508" data-name="Path 1508" d="M39.52,42.72H38.11l.1-.94h1.41Z" fill="#f4c750"/><path id="Path_1509" data-name="Path 1509" d="M41.32,42.72H39.91l.1-.94h1.4Z" fill="#f4c750"/><path id="Path_1510" data-name="Path 1510" d="M43.12,42.72H41.71l.09-.94h1.4Z" fill="#f4c750"/><path id="Path_1511" data-name="Path 1511" d="M44.93,42.72H43.51l.08-.94H45Z" fill="#f4c750"/><path id="Path_1512" data-name="Path 1512" d="M46.73,42.72H45.31l.07-.94h1.41Z" fill="#f4c750"/><path id="Path_1513" data-name="Path 1513" d="M48.53,42.72H47.12l.06-.94h1.41Z" fill="#f4c750"/><path id="Path_1514" data-name="Path 1514" d="M50.33,42.72H48.92l0-.94h1.41Z" fill="#f4c750"/><path id="Path_1515" data-name="Path 1515" d="M61.23,42.72H59.82v-.94h1.4Z" fill="#f4c750"/><path id="Path_1516" data-name="Path 1516" d="M63,42.72H61.62v-.94H63Z" fill="#f4c750"/><path id="Path_1517" data-name="Path 1517" d="M64.91,42.72H63.5l0-.94h1.41Z" fill="#f4c750"/><path id="Path_1518" data-name="Path 1518" d="M66.72,42.72H65.3l0-.94h1.4Z" fill="#f4c750"/><path id="Path_1519" data-name="Path 1519" d="M90.31,42.72H88.89l-.14-.94h1.41Z" fill="#f4c750"/><path id="Path_1520" data-name="Path 1520" d="M92.11,42.72H90.7l-.15-.94H92Z" fill="#f4c750"/><path id="Path_1521" data-name="Path 1521" d="M41.21,43.89H39.78l.1-1H41.3Z" fill="#f4c750"/><path id="Path_1522" data-name="Path 1522" d="M43,43.89H41.6l.09-1H43.1Z" fill="#f4c750"/><path id="Path_1523" data-name="Path 1523" d="M44.83,43.89H43.41l.08-1h1.42Z" fill="#f4c750"/><path id="Path_1524" data-name="Path 1524" d="M46.65,43.89H45.23l.07-1h1.41Z" fill="#f4c750"/><path id="Path_1525" data-name="Path 1525" d="M48.46,43.89H47l.06-1h1.42Z" fill="#f4c750"/><path id="Path_1526" data-name="Path 1526" d="M61.24,43.89H59.82v-1h1.41Z" fill="#f4c750"/><path id="Path_1527" data-name="Path 1527" d="M63.05,43.89H61.63v-1H63Z" fill="#f4c750"/><path id="Path_1528" data-name="Path 1528" d="M65,43.89H63.52v-1h1.41Z" fill="#f4c750"/><path id="Path_1529" data-name="Path 1529" d="M66.76,43.89H65.34l0-1h1.41Z" fill="#f4c750"/><path id="Path_1530" data-name="Path 1530" d="M68.57,43.89H67.15l0-1h1.42Z" fill="#f4c750"/><path id="Path_1531" data-name="Path 1531" d="M86.79,43.89H85.37l-.13-1h1.42Z" fill="#f4c750"/><path id="Path_1532" data-name="Path 1532" d="M88.6,43.89H87.18l-.14-1h1.42Z" fill="#f4c750"/><path id="Path_1533" data-name="Path 1533" d="M90.49,43.89H89.07l-.14-1h1.41Z" fill="#f4c750"/><path id="Path_1534" data-name="Path 1534" d="M41.1,45.08H39.67l.1-1h1.42Z" fill="#f4c750"/><path id="Path_1535" data-name="Path 1535" d="M42.92,45.08H41.49l.09-1H43Z" fill="#f4c750"/><path id="Path_1536" data-name="Path 1536" d="M44.75,45.08H43.31l.08-1h1.43Z" fill="#f4c750"/><path id="Path_1537" data-name="Path 1537" d="M46.57,45.08H45.14l.07-1h1.43Z" fill="#f4c750"/><path id="Path_1538" data-name="Path 1538" d="M61.25,45.08H59.82v-1h1.42Z" fill="#f4c750"/><path id="Path_1539" data-name="Path 1539" d="M63.07,45.08H61.64v-1h1.43Z" fill="#f4c750"/><path id="Path_1540" data-name="Path 1540" d="M65,45.08H63.55l0-1H65Z" fill="#f4c750"/><path id="Path_1541" data-name="Path 1541" d="M68.63,45.08H67.2l0-1h1.42Z" fill="#f4c750"/><path id="Path_1542" data-name="Path 1542" d="M83.3,45.08H81.87l-.11-1h1.43Z" fill="#f4c750"/><path id="Path_1543" data-name="Path 1543" d="M85.13,45.08H83.7l-.12-1H85Z" fill="#f4c750"/><path id="Path_1544" data-name="Path 1544" d="M87,45.08H85.52l-.13-1h1.43Z" fill="#f4c750"/><path id="Path_1545" data-name="Path 1545" d="M88.78,45.08H87.35l-.14-1h1.42Z" fill="#f4c750"/><path id="Path_1546" data-name="Path 1546" d="M90.68,45.08H89.25l-.14-1h1.42Z" fill="#f4c750"/><path id="Path_1547" data-name="Path 1547" d="M92.51,45.08H91.08l-.16-1h1.43Z" fill="#f4c750"/><path id="Path_1548" data-name="Path 1548" d="M41,46.28H39.54l.1-1h1.44Z" fill="#f4c750"/><path id="Path_1549" data-name="Path 1549" d="M42.82,46.28H41.38l.09-1H42.9Z" fill="#f4c750"/><path id="Path_1550" data-name="Path 1550" d="M44.65,46.28H43.21l.09-1h1.43Z" fill="#f4c750"/><path id="Path_1551" data-name="Path 1551" d="M61.26,46.28H59.82v-1h1.43Z" fill="#f4c750"/><path id="Path_1552" data-name="Path 1552" d="M63.09,46.28H61.65v-1h1.44Z" fill="#f4c750"/><path id="Path_1553" data-name="Path 1553" d="M85.29,46.28H83.85l-.12-1h1.43Z" fill="#f4c750"/><path id="Path_1554" data-name="Path 1554" d="M87.12,46.28H85.68l-.13-1H87Z" fill="#f4c750"/><path id="Path_1555" data-name="Path 1555" d="M89,46.28H87.52l-.14-1h1.43Z" fill="#f4c750"/><path id="Path_1556" data-name="Path 1556" d="M90.87,46.28H89.43l-.14-1h1.43Z" fill="#f4c750"/><path id="Path_1557" data-name="Path 1557" d="M92.71,46.28H91.27l-.16-1h1.44Z" fill="#f4c750"/><path id="Path_1558" data-name="Path 1558" d="M40.87,47.5H39.42l.1-1H41Z" fill="#f4c750"/><path id="Path_1559" data-name="Path 1559" d="M42.71,47.5H41.27l.09-1H42.8Z" fill="#f4c750"/><path id="Path_1560" data-name="Path 1560" d="M85.44,47.5H84l-.12-1h1.43Z" fill="#f4c750"/><path id="Path_1561" data-name="Path 1561" d="M87.29,47.5H85.84l-.13-1h1.44Z" fill="#f4c750"/><path id="Path_1562" data-name="Path 1562" d="M89.14,47.5H87.69l-.14-1H89Z" fill="#f4c750"/><path id="Path_1563" data-name="Path 1563" d="M91.07,47.5H89.62l-.15-1h1.44Z" fill="#f4c750"/><path id="Path_1564" data-name="Path 1564" d="M92.91,47.5H91.46l-.15-1h1.44Z" fill="#f4c750"/><path id="Path_1565" data-name="Path 1565" d="M98.45,47.5H97l-.19-1h1.45Z" fill="#f4c750"/><path id="Path_1566" data-name="Path 1566" d="M100.3,47.5H98.85l-.19-1h1.44Z" fill="#f4c750"/><path id="Path_1567" data-name="Path 1567" d="M40.75,48.74H39.3l.1-1h1.45Z" fill="#f4c750"/><path id="Path_1568" data-name="Path 1568" d="M42.61,48.74H41.16l.09-1H42.7Z" fill="#f4c750"/><path id="Path_1569" data-name="Path 1569" d="M91.26,48.74H89.8l-.15-1H91.1Z" fill="#f4c750"/><path id="Path_1570" data-name="Path 1570" d="M98.7,48.74H97.24l-.19-1H98.5Z" fill="#f4c750"/><path id="Path_1571" data-name="Path 1571" d="M40.63,50H39.17l.1-1h1.46Z" fill="#f4c750"/><path id="Path_1572" data-name="Path 1572" d="M97.07,50H95.6l-.18-1h1.46Z" fill="#f4c750"/><path id="Path_1573" data-name="Path 1573" d="M40.51,51.25H39l.1-1h1.47Z" fill="#f4c750"/></g></g></g><g id="Group_1717" data-name="Group 1717"><path id="Path_1574" data-name="Path 1574" d="M70,10.31c0,5.69-10.31,22-10.31,22S49.33,16,49.33,10.31a10.31,10.31,0,0,1,20.62,0Z" fill="#104273"/><path id="Path_1575" data-name="Path 1575" d="M69,10.29c0,5.19-9.4,20.05-9.4,20.05s-9.4-14.86-9.4-20a9.4,9.4,0,0,1,18.8,0Z" fill="#104273"/><circle id="Ellipse_368" data-name="Ellipse 368" cx="59.64" cy="10.31" r="5.84" fill="#fff"/></g></g></g></g></svg>