<svg xmlns="http://www.w3.org/2000/svg" viewBox="0 0 60.71 68.14"><g id="Layer_2" data-name="Layer 2"><g id="Layer_1-2" data-name="Layer 1"><g id="Group_1721" data-name="Group 1721"><path id="Rectangle_428" data-name="Rectangle 428" d="M46,19.07h2.09a5.62,5.62,0,0,1,5.62,5.63h0a5.62,5.62,0,0,1-5.62,5.62H46V19.07Z" fill="#104273"/><path id="Rectangle_429" data-name="Rectangle 429" d="M14,30.32H11.88A5.62,5.62,0,0,1,6.26,24.7h0a5.63,5.63,0,0,1,5.62-5.63H14V30.32Z" fill="#f4c750"/><path id="Path_1590" data-name="Path 1590" d="M51.25,24.59H49C49,10,42.4,2.29,30,2.29V0C43.7,0,51.25,8.73,51.25,24.59Z" fill="#104273"/><path id="Path_1591" data-name="Path 1591" d="M11,24.59H8.76C8.76,8.73,16.3,0,30,0V2.29C17.6,2.29,11,10,11,24.59Z" fill="#f4c750"/><path id="Path_1592" data-name="Path 1592" d="M60.71,62.17v2.31a3.65,3.65,0,0,1-3.65,3.66H3.65A3.66,3.66,0,0,1,0,64.48H0V62.17A20.26,20.26,0,0,1,20.26,41.9H40.45A20.26,20.26,0,0,1,60.71,62.17Z" fill="#f4c750"/><path id="Path_1593" data-name="Path 1593" d="M48.15,22.41C48.15,34.24,40,47.14,30,47.14c-4,0-7.66-2-10.66-5.24a24.34,24.34,0,0,1-1.88-2.29,30.15,30.15,0,0,1-5.6-17.2C11.86,10.59,20,4.32,30,4.32S48.15,10.59,48.15,22.41Z" fill="#f4c750"/><g id="Group_1719" data-name="Group 1719"><path id="Path_1594" data-name="Path 1594" d="M46.34,22.74C46.34,33.39,39,45,30,45h-.09c-9-.08-16.25-11.64-16.25-22.26S20.93,6.49,29.91,6.46H30C39,6.46,46.34,12.1,46.34,22.74Z" fill="#fff"/></g><g id="Group_1720" data-name="Group 1720"><path id="Path_1595" data-name="Path 1595" d="M26.28,40.24v1.83H21.64a17.68,17.68,0,0,1-2.3-.18,21.89,21.89,0,0,1-1.89-2.29,14.73,14.73,0,0,0,4.47.63Z" fill="#fff"/></g><path id="Path_1596" data-name="Path 1596" d="M22.07,40.65c-1.29,0-6.06-.22-9.37-3.28a10.47,10.47,0,0,1-3.2-7.64V26.78h1.83V29.7A8.62,8.62,0,0,0,14,36c3.23,3,8.35,2.8,8.4,2.79h4.36v1.83H22.07Z" fill="#f4c750"/><path id="Rectangle_430" data-name="Rectangle 430" d="M25,37.68h2.89a2,2,0,0,1,2,2h0a2,2,0,0,1-2,2H25a2,2,0,0,1-2-2h0A2,2,0,0,1,25,37.68Z" fill="#f4c750"/><path id="Path_1597" data-name="Path 1597" d="M46.34,22.75c-3-4.37-10.17-1.11-12-5-.94,1.59.24,2.89,2.85,5A20.21,20.21,0,0,1,30,21.56c-4.54-1.44-9.2-4-10.67-6.51,0,0,1.4,7.17-5.36,14.35,0,0-5.78-22.5,16-23.8C30,5.6,48.68,6.46,46.34,22.75Z" fill="#f4c750"/><path id="Path_1598" data-name="Path 1598" d="M60.71,62.17v2.31a3.65,3.65,0,0,1-3.65,3.66H30V41.9H40.44A20.26,20.26,0,0,1,60.71,62.17Z" fill="#104273"/><path id="Path_1599" data-name="Path 1599" d="M48.15,22.41C48.15,34.24,40,47.14,30,47.14V4.32C40,4.32,48.15,10.59,48.15,22.41Z" fill="#104273"/><path id="Path_1600" data-name="Path 1600" d="M46.34,22.74C46.34,33.39,39,45,30,45V6.46C39,6.46,46.34,12.1,46.34,22.74Z" fill="#f2f2f2"/><path id="Path_1601" data-name="Path 1601" d="M46.34,22.75c-3-4.37-10.17-1.11-12-5-.94,1.59.24,2.89,2.85,5A20.21,20.21,0,0,1,30,21.56V5.6S48.68,6.46,46.34,22.75Z" fill="#104273"/></g></g></g></svg>