<svg xmlns="http://www.w3.org/2000/svg" viewBox="0 0 75 75"><g id="Layer_2" data-name="Layer 2"><g id="Layer_2-2" data-name="Layer 2"><g id="Group_1760" data-name="Group 1760"><circle id="Ellipse_371" data-name="Ellipse 371" cx="37.5" cy="37.5" r="37.5" fill="#fff"/><g id="Group_1759" data-name="Group 1759"><g id="Group_1749" data-name="Group 1749"><g id="Group_1744" data-name="Group 1744"><g id="Group_1741" data-name="Group 1741"><path id="Path_1607" data-name="Path 1607" d="M56.21,30.68h0V28.29c-.07-.08-.81-.91-2.94-.92-.11.51-.69,2.83-.7,2.86h0s.6-2.4.7-2.87v0h0a5.15,5.15,0,0,1,2.35.47,2,2,0,0,1,.64.47h0Z" fill="#104273"/></g><g id="Group_1742" data-name="Group 1742"><path id="Path_1608" data-name="Path 1608" d="M56.19,30.88V31a.15.15,0,0,0-.1,0L56,31a2.7,2.7,0,0,0-.59-.35,3.39,3.39,0,0,0-.41-.15c-.14-.05-.28-.08-.43-.12a8.74,8.74,0,0,0-.87-.14,8.64,8.64,0,0,0-.88,0h0v0l.43-2.2-.35,2.16c.28,0,.56,0,.85,0a6.79,6.79,0,0,1,.89.12l.44.1.43.14a3.25,3.25,0,0,1,.7.4Z" fill="#104273"/></g><g id="Group_1743" data-name="Group 1743"><path id="Path_1609" data-name="Path 1609" d="M56.19,30.86V31a.14.14,0,0,0-.14.14v.07l-3.57-.92,0-.11,3.43.89a.26.26,0,0,1,.23-.19Z" fill="#104273"/></g></g><g id="Group_1748" data-name="Group 1748"><g id="Group_1745" data-name="Group 1745"><path id="Path_1610" data-name="Path 1610" d="M56.16,30.68h.05V28.29c.06-.08.81-.91,2.93-.92.11.51.69,2.83.7,2.86h0s-.6-2.4-.7-2.87v0h0a5.11,5.11,0,0,0-2.34.47,1.9,1.9,0,0,0-.65.47h0Z" fill="#104273"/></g><g id="Group_1746" data-name="Group 1746"><path id="Path_1611" data-name="Path 1611" d="M56.19,30.88V31a.21.21,0,0,1,.1,0,.35.35,0,0,1,.09-.07A2.7,2.7,0,0,1,57,30.6a2.86,2.86,0,0,1,.41-.15l.42-.12a8.74,8.74,0,0,1,.87-.14,8.83,8.83,0,0,1,.89,0h0v0l-.42-2.2.35,2.16c-.29,0-.57,0-.85,0a6.57,6.57,0,0,0-.89.12l-.44.1-.43.14a3,3,0,0,0-.7.4Z" fill="#104273"/></g><g id="Group_1747" data-name="Group 1747"><path id="Path_1612" data-name="Path 1612" d="M56.19,30.86V31a.14.14,0,0,1,.1,0,.15.15,0,0,1,0,.1v.07l3.56-.92,0-.11-3.44.89a.25.25,0,0,0-.22-.19Z" fill="#104273"/></g></g></g><path id="Path_1613" data-name="Path 1613" d="M59.41,33a2.7,2.7,0,0,1-.4.14l-.12,0-.4.1-.07,0-.1,0-.68.14-.5.12-.12,0a3,3,0,0,0-.5.19,3.64,3.64,0,0,0-.46.3c-.54.42.51,1.76.64,1.95a5.86,5.86,0,0,1-1.42.33l.07,0a13,13,0,0,1-.52-1.21,2.66,2.66,0,0,1-.17-.63,1,1,0,0,1,0-.3.58.58,0,0,1,0-.14l.09-.12a1.06,1.06,0,0,1,.26-.17l.3-.13.61-.26c.42-.16.83-.3,1.26-.43.21-.07.42-.12.64-.18l.65-.15.32-.09.16-.06,0,0,0,0a.19.19,0,0,0,0-.09.15.15,0,0,0-.06-.17,1.19,1.19,0,0,0-.15-.09L58.78,32l-.15-.07-.64-.2c-.21-.07-.43-.12-.64-.18-.43-.11-.86-.21-1.3-.3q.64.15,1.29.33l.64.18.63.22.15.06.15.07.14.08a.11.11,0,0,1,0,.12l0,.06h0l0,0-.15.05-.32.08-.65.15-.65.17c-.43.12-.85.26-1.27.41l-.62.25-.31.13a1,1,0,0,0-.3.19.76.76,0,0,0-.11.14.61.61,0,0,0-.07.17,1.09,1.09,0,0,0,0,.36,3.53,3.53,0,0,0,.16.66,12.82,12.82,0,0,0,.5,1.21,17.73,17.73,0,0,1-1.79.12,7.13,7.13,0,0,1-.47-2.09.67.67,0,0,1,0-.2c.05-.51.48-.74,1-.93a2.9,2.9,0,0,1,.48-.14c4.39-.93,4-.87,4-1,0-.26-5.46-1.68-5.79-1.77a66.66,66.66,0,0,1,6.8,1.65.61.61,0,0,1,.36.39C59.82,32.71,59.68,32.86,59.41,33Z" fill="#f4c750"/><path id="Path_1614" data-name="Path 1614" d="M55.28,36.38l-.08,0v0Z" fill="red"/><g id="Group_1750" data-name="Group 1750"><path id="Path_1615" data-name="Path 1615" d="M57,33.6v1.45h-.5V33.79A3,3,0,0,1,57,33.6Z" fill="#104273"/><path id="Path_1616" data-name="Path 1616" d="M57.65,33.44v1.61h-.5V33.56Z" fill="#104273"/><path id="Path_1617" data-name="Path 1617" d="M59.41,33v1.21H59V33.12A2.7,2.7,0,0,0,59.41,33Z" fill="#104273"/><path id="Path_1618" data-name="Path 1618" d="M58.89,33.15v1h-.4v-.93Z" fill="#104273"/></g><path id="Path_1619" data-name="Path 1619" d="M64.49,29.26a9.51,9.51,0,0,0-.53-3,11.34,11.34,0,0,0-5.14-5.94,8,8,0,0,0-.93-.45,1.72,1.72,0,0,0-3.43-.22v.22a8,8,0,0,0-.93.45,11.34,11.34,0,0,0-5.14,5.94,9.51,9.51,0,0,0-.53,3c0,1.35-.11,11.06,0,11.06H64.49C64.6,40.32,64.49,30.61,64.49,29.26Zm-.58.21V39.79H48.44V29.47a7,7,0,0,1,.26-1.88,8.92,8.92,0,0,1,1.75-3.39,12.62,12.62,0,0,1,3.17-2.7c1.09-.62,2.55-1.18,2.55-1.94,0,.77,1.47,1.32,2.56,1.94a12.76,12.76,0,0,1,3.16,2.7,8.81,8.81,0,0,1,1.76,3.39A7,7,0,0,1,63.91,29.47Z" fill="#f4c750"/><path id="Path_1620" data-name="Path 1620" d="M56.19,20.09a2.06,2.06,0,0,0,.9,1.15c.63.29,3.73,2.22,4.63,3.65a8.43,8.43,0,0,1,1.63,4.28v4.75a.13.13,0,0,1-.13.13h0a.12.12,0,0,1-.13-.12l-.3-4.66s0-.2-.09-.54a8,8,0,0,0-2.45-4.21,11.15,11.15,0,0,0-2.68-1.95c-.86-.46-1.38-.8-1.38-1.18h0c0,.38-.51.72-1.37,1.18a11,11,0,0,0-2.68,1.95,7.9,7.9,0,0,0-2.45,4.21,5.32,5.32,0,0,0-.09.54l-.3,4.66a.13.13,0,0,1-.13.12h0a.13.13,0,0,1-.13-.13h0V29.17a8.43,8.43,0,0,1,1.63-4.28c.9-1.43,4-3.36,4.63-3.65a2.06,2.06,0,0,0,.9-1.15" fill="#939393"/><path id="Path_1621" data-name="Path 1621" d="M56.18,23.12c0,.53,1.79,1.27,2.53,1.74a5.9,5.9,0,0,1,3,4.31c.06.51.26,4,.26,4h.22v-4a6.56,6.56,0,0,0-.77-2.4c-.93-1.74-3.32-3.11-4.24-3.58s-1-1-1-1-.08.6-1,1S51.88,25,51,26.71a6.56,6.56,0,0,0-.77,2.4v4h.22s.21-3.47.26-4a6,6,0,0,1,3-4.31C54.39,24.39,56.18,23.65,56.18,23.12Z" fill="#104273"/><g id="Group_1751" data-name="Group 1751"><path id="Path_1622" data-name="Path 1622" d="M51.48,39h-.1a1,1,0,0,0-.24,0c-.07,0-.1,0-.1,0a1.42,1.42,0,0,1,.05.16.8.8,0,0,1,0,.15s0,0,0,.08a.43.43,0,0,1,0,.07,1.18,1.18,0,0,0,0-.2.64.64,0,0,0-.05-.16.36.36,0,0,1,0-.1A.29.29,0,0,1,51,39l0-.07a.15.15,0,0,1,.09-.06.48.48,0,0,1,.18,0c0-.06-.08-.09-.1-.09l0,0-.06.06h0a.37.37,0,0,1,.08-.18.13.13,0,0,1,.1-.06.17.17,0,0,1,.11.06,1.15,1.15,0,0,1,.14.17Z" fill="#104273"/><path id="Path_1623" data-name="Path 1623" d="M52.53,38.25a.3.3,0,0,1,0,.16.37.37,0,0,1-.14.07.83.83,0,0,1,0,.15s0,.08,0,.12v.09a.83.83,0,0,1,0,.13h0a.49.49,0,0,0,0-.12.3.3,0,0,0,0-.1l0-.1a.77.77,0,0,0-.07-.16,1.63,1.63,0,0,0-.11-.17l.07-.21a.52.52,0,0,0,.1.11.17.17,0,0,0,.1,0c.08,0,.12,0,.12-.14h0v.08S52.53,38.22,52.53,38.25Z" fill="#104273"/><path id="Path_1624" data-name="Path 1624" d="M53.29,38.64a.31.31,0,0,1,0,.12,1,1,0,0,1,0,.12l-.11-.07L53,38.74a.5.5,0,0,1,0-.12l0-.12.09.07Z" fill="#104273"/><path id="Path_1625" data-name="Path 1625" d="M54.15,38.64l0,.12a.68.68,0,0,0,0,.12L54,38.81l-.09-.07a.5.5,0,0,1,0-.12s0-.07,0-.12l.09.07Z" fill="#104273"/><path id="Path_1626" data-name="Path 1626" d="M55.17,38.21c0,.18-.05.26-.15.26H55a.1.1,0,0,1,0,0,.12.12,0,0,1-.05,0l-.06,0,0,.12v.1a.37.37,0,0,1,0,.11.8.8,0,0,1,0,.15h0a.81.81,0,0,0,0-.17.5.5,0,0,0,0-.12,1.09,1.09,0,0,0,0-.17c0-.06-.07-.12-.11-.17l.07-.23a.34.34,0,0,0,.09.12.14.14,0,0,0,.09,0,.09.09,0,0,0,.08,0,.15.15,0,0,0,0-.11h0a.16.16,0,0,0,0,.09s0,0,0,0,.08,0,.09-.11h0v.1Z" fill="#104273"/><path id="Path_1627" data-name="Path 1627" d="M55.8,38.9v-.21h.41v.21Z" fill="#104273"/><path id="Path_1628" data-name="Path 1628" d="M56.94,39h-.35v-.2h.35Z" fill="#104273"/><path id="Path_1629" data-name="Path 1629" d="M57.55,38.81a.21.21,0,0,1,0,.12s0,.08-.06.08l-.1,0a.7.7,0,0,1-.17-.09.23.23,0,0,1-.12.06A.2.2,0,0,1,57,39H56.9v-.2h.15v0a.88.88,0,0,1,0-.16.22.22,0,0,1,.09-.1l0,0s0-.07,0-.1a.33.33,0,0,1,0-.1,1.8,1.8,0,0,1,.2.19,2.39,2.39,0,0,1,.13.21A.61.61,0,0,1,57.55,38.81Zm-.3-.17a.07.07,0,0,0,0-.06s0,0,0,0a.05.05,0,0,0-.05,0,.05.05,0,0,0,0,0s0,0,.07.06h0a.05.05,0,0,0,0,0Zm.2.14a.11.11,0,0,0,0-.07l-.08-.09a.13.13,0,0,1,0,.06s0,0,0,.06a.39.39,0,0,0,.14,0h0Z" fill="#104273"/><path id="Path_1630" data-name="Path 1630" d="M58.2,38.68l0,.29h-.05a1.34,1.34,0,0,0,0-.2,1,1,0,0,0,0-.16.31.31,0,0,0-.06-.13.56.56,0,0,0-.1-.15l.1-.23.09.13a.61.61,0,0,1,0,.12,1,1,0,0,1,0,.16C58.19,38.57,58.2,38.63,58.2,38.68Z" fill="#104273"/><path id="Path_1631" data-name="Path 1631" d="M59.11,38.76l-.06.21-.19,0c-.07,0-.1-.06-.1-.1a.3.3,0,0,1,0-.1l.12-.14-.09,0c-.05,0-.08,0-.08-.08a.38.38,0,0,1,.08-.17,1.1,1.1,0,0,1,.22-.21l0,.18-.08,0s0,0,0,0l0,0,.09,0,.05,0v0s0,0,0,.07l-.08.1a.1.1,0,0,0,0,.07s0,0,.11,0Z" fill="#104273"/><path id="Path_1632" data-name="Path 1632" d="M60,38.25a.32.32,0,0,1,0,.16.37.37,0,0,1-.14.07l0,.15a.49.49,0,0,1,0,.12v.09a.83.83,0,0,1,0,.13h-.05v-.12l0-.1a.27.27,0,0,0,0-.1l-.06-.16-.12-.17.07-.21.1.11a.19.19,0,0,0,.1,0c.09,0,.13,0,.13-.14h0v.08A.35.35,0,0,1,60,38.25Z" fill="#104273"/><path id="Path_1633" data-name="Path 1633" d="M60.81,38.76l-.06.21-.19,0c-.07,0-.1-.06-.1-.1a.16.16,0,0,1,0-.1.53.53,0,0,1,.12-.14l-.09,0s-.08,0-.08-.08a.38.38,0,0,1,.08-.17,1,1,0,0,1,.21-.21l0,.18-.08,0s0,0,0,0l0,0,.09,0,0,0v0s0,0-.05.07l-.09.1a.15.15,0,0,0,0,.07s0,0,.11,0Z" fill="#104273"/></g><rect id="Rectangle_437" data-name="Rectangle 437" x="10.02" y="18.01" width="17.46" height="6.01" fill="#104273"/><rect id="Rectangle_438" data-name="Rectangle 438" x="15.53" y="22.18" width="6.45" height="18.14" fill="#104273"/><path id="Path_1634" data-name="Path 1634" d="M46.68,18V33a8.12,8.12,0,0,1-1.44,4.4,6.38,6.38,0,0,1-3.2,2.4,13.12,13.12,0,0,1-7.94.13,6.84,6.84,0,0,1-4-3.19,8,8,0,0,1-1-3.74h0V29.68h0V18H35.3V31.07a2.84,2.84,0,0,0,2.83,2.84h0A2.87,2.87,0,0,0,41,31V18Z" fill="#104273"/><g id="Group_1752" data-name="Group 1752"><path id="Path_1635" data-name="Path 1635" d="M64.54,43.29c-.54,0-53.83-.06-54.5,0L10,43c.39-.06,49,0,54.54,0Z" fill="#104273"/></g><g id="Group_1753" data-name="Group 1753"><path id="Path_1636" data-name="Path 1636" d="M64.54,56C64,56,10.71,55.94,10,56l0-.29c.39-.06,49,0,54.54,0Z" fill="#104273"/></g><g id="Group_1754" data-name="Group 1754"><path id="Path_1637" data-name="Path 1637" d="M16.54,47.87s0,0,0,0v.61s0,0,0,0H11.83a1,1,0,0,1-.8-.3,1.08,1.08,0,0,1-.3-.82,1.7,1.7,0,0,1,0-.44,1.44,1.44,0,0,1,.13-.4h.72a3.53,3.53,0,0,0-.08.72.63.63,0,0,0,.14.42.5.5,0,0,0,.38.15h1.44a1.13,1.13,0,0,1-.27-.72,1.25,1.25,0,0,1,.43-1,1.81,1.81,0,0,1,1.19-.36h1v2.08Zm-1.52,0V46.46h-.14a.81.81,0,0,0-.58.18.68.68,0,0,0-.2.54.65.65,0,0,0,.2.51.83.83,0,0,0,.57.18Zm-.2-2.55a.42.42,0,0,1-.27-.69.32.32,0,0,1,.27-.11.34.34,0,0,1,.27.1.42.42,0,0,1,.1.3.38.38,0,0,1-.1.29.34.34,0,0,1-.27.1Z" fill="#104273"/><path id="Path_1638" data-name="Path 1638" d="M17.48,47.86s0,0,0,0v.62a0,0,0,0,1,0,0h-1l0,0h0v-.62s0,0,0,0Z" fill="#104273"/><path id="Path_1639" data-name="Path 1639" d="M18.43,47.86s0,0,0,0v.62a0,0,0,0,1,0,0h-1s0,0,0,0h0v-.62s0,0,0,0Z" fill="#104273"/><path id="Path_1640" data-name="Path 1640" d="M19.38,47.86s0,0,0,0v.62s0,0,0,0h-1s0,0,0,0h0v-.62s0,0,0,0Z" fill="#104273"/><path id="Path_1641" data-name="Path 1641" d="M20.32,47.86s0,0,0,0v.62a0,0,0,0,1,0,0h-1s0,0,0,0h0v-.62s0,0,0,0Z" fill="#104273"/><path id="Path_1642" data-name="Path 1642" d="M21.26,47.86s0,0,0,0v.62a0,0,0,0,1,0,0h-1l0,0h0v-.62s0,0,0,0Z" fill="#104273"/><path id="Path_1643" data-name="Path 1643" d="M21.21,48.53s0,0,0,0h0v-.62s0,0,0,0h.69V45.78h.82v2.74Zm.4-3.46.31,0a.65.65,0,0,1-.18-.15.46.46,0,0,1,.1-.6.69.69,0,0,1,.44-.13.91.91,0,0,1,.46.1l-.11.28a.66.66,0,0,0-.3-.07.31.31,0,0,0-.2.07.26.26,0,0,0-.07.19.3.3,0,0,0,.05.16.4.4,0,0,0,.12.1l.1,0,.45-.06v.32l-.65.07-.52.07Z" fill="#104273"/><path id="Path_1644" data-name="Path 1644" d="M25.26,47.86s0,0,0,0v.62s0,0,0,0H23.74v-4.2h.83v3.53Z" fill="#104273"/><path id="Path_1645" data-name="Path 1645" d="M26.2,47.86s0,0,0,0v.62a0,0,0,0,1,0,0h-1a0,0,0,0,1,0,0h0v-.62a0,0,0,0,1,0,0Z" fill="#104273"/><path id="Path_1646" data-name="Path 1646" d="M27.15,47.86s0,0,0,0v.62a0,0,0,0,1,0,0h-1s0,0,0,0h0v-.62s0,0,0,0Z" fill="#104273"/><path id="Path_1647" data-name="Path 1647" d="M28.09,47.86s0,0,0,0v.62a0,0,0,0,1,0,0h-1a0,0,0,0,1,0,0h0v-.62a0,0,0,0,1,0,0Z" fill="#104273"/><path id="Path_1648" data-name="Path 1648" d="M28,48.53s0,0,0,0h0v-.62s0,0,0,0h.65V44.33h.83v2.43a1.6,1.6,0,0,1,1.5-1,1.42,1.42,0,0,1,1,.36,1.54,1.54,0,0,1,.34,1.11v.66h.73a0,0,0,0,1,0,0v.62l0,0H28Zm3.52-.67v-.68a.8.8,0,0,0-.19-.59.74.74,0,0,0-.57-.19c-.49,0-.92.34-1.29,1v.43Z" fill="#104273"/><path id="Path_1649" data-name="Path 1649" d="M33.05,48.53s0,0,0,0h0v-.62s0,0,0,0h.69V44.33h.82v4.2Z" fill="#104273"/><path id="Path_1650" data-name="Path 1650" d="M35.67,44.33h.82v4.2h-.82Z" fill="#104273"/><path id="Path_1651" data-name="Path 1651" d="M42.58,47.86a0,0,0,0,1,0,0v.62l0,0H40.9a1.81,1.81,0,0,1-1.19-.36,1.24,1.24,0,0,1-.43-1,1.42,1.42,0,0,1,.19-.73A1.3,1.3,0,0,1,40,46a2,2,0,0,1,.86-.17h.16v-.27h.83v2.34Zm-1.52,0V46.45h-.15a.88.88,0,0,0-.58.19.71.71,0,0,0-.2.54.63.63,0,0,0,.2.5.81.81,0,0,0,.58.18Zm-.52-2.69a.35.35,0,0,1-.27-.11.43.43,0,0,1-.1-.29.45.45,0,0,1,.1-.29.39.39,0,0,1,.27-.11.37.37,0,0,1,.27.11.38.38,0,0,1,.1.29.42.42,0,0,1-.1.3.38.38,0,0,1-.27.1Zm.94,0a.35.35,0,0,1-.27-.11.43.43,0,0,1-.1-.29.45.45,0,0,1,.1-.29.39.39,0,0,1,.27-.11.37.37,0,0,1,.27.11.4.4,0,0,1,.1.29.38.38,0,0,1-.1.29.31.31,0,0,1-.27.11Z" fill="#104273"/><path id="Path_1652" data-name="Path 1652" d="M43.52,47.86s0,0,0,0v.62a0,0,0,0,1,0,0h-1s0,0,0,0h0v-.62s0,0,0,0Z" fill="#104273"/><path id="Path_1653" data-name="Path 1653" d="M44.46,47.86s0,0,0,0v.62a0,0,0,0,1,0,0h-1a0,0,0,0,1,0,0h0v-.62s0,0,0,0Z" fill="#104273"/><path id="Path_1654" data-name="Path 1654" d="M45.4,47.86s0,0,0,0v.62a0,0,0,0,1,0,0h-1a0,0,0,0,1,0,0h0v-.62a0,0,0,0,1,0,0Z" fill="#104273"/><path id="Path_1655" data-name="Path 1655" d="M46.35,47.86s0,0,0,0v.62a0,0,0,0,1,0,0h-1l0,0h0v-.62s0,0,0,0Z" fill="#104273"/><path id="Path_1656" data-name="Path 1656" d="M47.3,47.86s0,0,0,0v.62a0,0,0,0,1,0,0h-1s0,0,0,0h0v-.62s0,0,0,0Z" fill="#104273"/><path id="Path_1657" data-name="Path 1657" d="M50.64,47.86a0,0,0,0,1,0,0v.62l0,0h-.71a2.35,2.35,0,0,1-.53-.09,1.69,1.69,0,0,1-.49-.23,1.86,1.86,0,0,1-1,.31h-.64s0,0,0,0h0v-.62a0,0,0,0,1,0,0h.56a1.24,1.24,0,0,0,.27,0,.73.73,0,0,0,.25-.08,1.35,1.35,0,0,1-.35-.4,2.46,2.46,0,0,1-.32-.6,2.62,2.62,0,0,1-.19-.62,2.53,2.53,0,0,1,.75-.42,2.25,2.25,0,0,1,.81-.16,2.82,2.82,0,0,1,1.39.33,2.46,2.46,0,0,1-.25,1.1,1.82,1.82,0,0,1-.66.77,1.25,1.25,0,0,0,.5.11Zm-1.72-.45a1.32,1.32,0,0,0,.7-1.09,1.65,1.65,0,0,0-.62-.1,1.32,1.32,0,0,0-.39.06,1,1,0,0,0-.32.15,1.94,1.94,0,0,0,.25.57,1.18,1.18,0,0,0,.39.41Z" fill="#104273"/><path id="Path_1658" data-name="Path 1658" d="M51.58,47.86s0,0,0,0v.62a0,0,0,0,1,0,0h-1s0,0,0,0h0v-.62s0,0,0,0Z" fill="#104273"/><path id="Path_1659" data-name="Path 1659" d="M52.53,47.86s0,0,0,0v.62a0,0,0,0,1,0,0h-1s0,0,0,0h0v-.62s0,0,0,0Z" fill="#104273"/><path id="Path_1660" data-name="Path 1660" d="M53.47,47.86s0,0,0,0v.62a0,0,0,0,1,0,0h-1s0,0,0,0h0v-.62s0,0,0,0Z" fill="#104273"/><path id="Path_1661" data-name="Path 1661" d="M54,47.86a2,2,0,0,1-.15-.76,1.82,1.82,0,0,1,.08-.52,2.55,2.55,0,0,1,.2-.48,2.35,2.35,0,0,1,.57-.23,1.89,1.89,0,0,1,.53-.08A1.4,1.4,0,0,1,56,46a1.1,1.1,0,0,1,.47.46,1.25,1.25,0,0,1,.17.68,1.36,1.36,0,0,1-.74,1.25,1.71,1.71,0,0,1-.77.18H53.41l0,0h0v-.6s0,0,0,0Zm.61-.64a2,2,0,0,0,.13.64H55a.74.74,0,0,0,.56-.22.81.81,0,0,0,.08-1,.46.46,0,0,0-.38-.18,1.09,1.09,0,0,0-.52.16,2.43,2.43,0,0,0-.08.61Z" fill="#104273"/><path id="Path_1662" data-name="Path 1662" d="M59,47.86s0,0,0,0v.62s0,0,0,0H57.46v-4.2h.83v3.53Z" fill="#104273"/><path id="Path_1663" data-name="Path 1663" d="M59.92,47.86s0,0,0,0v.62a0,0,0,0,1,0,0h-1a0,0,0,0,1,0,0h0v-.62s0,0,0,0Z" fill="#104273"/><path id="Path_1664" data-name="Path 1664" d="M60.87,47.86s0,0,0,0v.62a0,0,0,0,1,0,0h-1s0,0,0,0h0v-.62s0,0,0,0Z" fill="#104273"/><path id="Path_1665" data-name="Path 1665" d="M60.81,48.53a0,0,0,0,1,0,0h0v-.61s0,0,0,0H63a1.4,1.4,0,0,1-.33-.78,1.09,1.09,0,0,0-.22-.53A.68.68,0,0,0,62,46.4a1.49,1.49,0,0,0-.36.05,2.43,2.43,0,0,0-.37.16l-.25-.6a2.36,2.36,0,0,1,1.16-.27,1.34,1.34,0,0,1,.86.25,1.26,1.26,0,0,1,.4.82,2.13,2.13,0,0,0,.38,1.06v.66Zm1.35,1.38a.37.37,0,0,1-.28-.11.43.43,0,0,1-.1-.29.45.45,0,0,1,.1-.29.43.43,0,0,1,.28-.11.36.36,0,0,1,.26.11.47.47,0,0,1,0,.58A.36.36,0,0,1,62.16,49.91Z" fill="#104273"/></g><g id="Group_1755" data-name="Group 1755"><path id="Path_1666" data-name="Path 1666" d="M12.2,54.42V51.13H11v-.66h3.15v.66H13v3.29Z" fill="#104273"/><path id="Path_1667" data-name="Path 1667" d="M18.29,54.42h-.87l-.35-.9H15.49l-.33.9h-.85l1.55-4h.84Zm-1.47-1.56-.55-1.47-.53,1.47Z" fill="#104273"/><path id="Path_1668" data-name="Path 1668" d="M19.13,54.42v-4h.8v4Z" fill="#104273"/><path id="Path_1669" data-name="Path 1669" d="M21.14,54.42v-4h2.71v.67H21.94v.94h1.65v.67H21.94v1.68Z" fill="#104273"/><path id="Path_1670" data-name="Path 1670" d="M26.93,50.46h.8v2.15a3.65,3.65,0,0,0,0,.66.64.64,0,0,0,.24.39,1,1,0,0,0,1,0,.54.54,0,0,0,.21-.34,5.12,5.12,0,0,0,0-.67V50.47h.8v2.08a4.81,4.81,0,0,1-.07,1,1,1,0,0,1-.24.5,1.09,1.09,0,0,1-.46.33,2.46,2.46,0,0,1-.76.12,2.25,2.25,0,0,1-.86-.14,1.21,1.21,0,0,1-.47-.34,1.07,1.07,0,0,1-.22-.44,4.71,4.71,0,0,1-.08-1Z" fill="#104273"/><path id="Path_1671" data-name="Path 1671" d="M31.37,54.42v-4h.78l1.62,2.65V50.46h.74v4h-.8l-1.6-2.58v2.58Z" fill="#104273"/><path id="Path_1672" data-name="Path 1672" d="M35.77,54.42v-4h.8v4Z" fill="#104273"/><path id="Path_1673" data-name="Path 1673" d="M38.79,54.42l-1.42-4h.87l1,2.93,1-2.93h.85l-1.42,4Z" fill="#104273"/><path id="Path_1674" data-name="Path 1674" d="M41.91,54.42v-4h2.93v.67H42.71V52h2v.67h-2v1.08h2.21v.66Z" fill="#104273"/><path id="Path_1675" data-name="Path 1675" d="M46,54.42v-4h1.68a3.14,3.14,0,0,1,.92.11.93.93,0,0,1,.47.38,1.24,1.24,0,0,1,.17.63,1.09,1.09,0,0,1-.26.73,1.3,1.3,0,0,1-.79.37,1.76,1.76,0,0,1,.43.33,5,5,0,0,1,.46.64l.48.77h-1l-.58-.86a4.47,4.47,0,0,0-.42-.58.51.51,0,0,0-.24-.16,1.33,1.33,0,0,0-.4,0h-.16v1.65Zm.8-2.28h.59a3.49,3.49,0,0,0,.72,0,.41.41,0,0,0,.22-.17.46.46,0,0,0,.08-.3.47.47,0,0,0-.1-.32.52.52,0,0,0-.3-.16H46.84Z" fill="#104273"/><path id="Path_1676" data-name="Path 1676" d="M50.27,53.13l.78-.07a1,1,0,0,0,.29.57.86.86,0,0,0,.58.19.88.88,0,0,0,.58-.17.47.47,0,0,0,.2-.38.43.43,0,0,0-.08-.24.66.66,0,0,0-.29-.17l-.64-.17a2.13,2.13,0,0,1-.9-.39,1,1,0,0,1-.37-.8,1,1,0,0,1,.18-.57,1.07,1.07,0,0,1,.49-.4,2.29,2.29,0,0,1,.78-.14,1.72,1.72,0,0,1,1.12.33,1.17,1.17,0,0,1,.4.87l-.8,0a.67.67,0,0,0-.22-.44.76.76,0,0,0-.5-.13.94.94,0,0,0-.55.14.29.29,0,0,0-.13.24.3.3,0,0,0,.12.24,2,2,0,0,0,.74.27,4.54,4.54,0,0,1,.86.28,1.21,1.21,0,0,1,.44.4,1.25,1.25,0,0,1,0,1.27,1.11,1.11,0,0,1-.54.44,2.11,2.11,0,0,1-.86.15,1.76,1.76,0,0,1-1.15-.35A1.51,1.51,0,0,1,50.27,53.13Z" fill="#104273"/><path id="Path_1677" data-name="Path 1677" d="M54.58,54.42v-4h.8v4Z" fill="#104273"/><path id="Path_1678" data-name="Path 1678" d="M57.47,54.42V51.13H56.3v-.66h3.14v.66H58.27v3.29Z" fill="#104273"/><path id="Path_1679" data-name="Path 1679" d="M61.44,54.42V52.76L60,50.46h.94L61.86,52l.91-1.57h.92l-1.45,2.3v1.66Z" fill="#104273"/></g></g></g></g></g></svg>