<svg xmlns="http://www.w3.org/2000/svg" viewBox="0 0 66.41 61.32"><g id="Layer_2" data-name="Layer 2"><g id="Layer_1-2" data-name="Layer 1"><g id="Group_1722" data-name="Group 1722"><rect id="Rectangle_431" data-name="Rectangle 431" x="6.56" y="5.27" width="47.1" height="4.93" fill="#104273"/><path id="Path_1602" data-name="Path 1602" d="M44.21,35.84A10.72,10.72,0,0,1,54.92,25.13H63.8V20.07a7.65,7.65,0,0,0-7.63-7.63H8A4.44,4.44,0,0,1,3.57,8h0A4.45,4.45,0,0,1,8,3.57H52.38a5,5,0,0,1,5,5v1a10.43,10.43,0,0,1,3.58,1.06V8.54A8.55,8.55,0,0,0,52.38,0H8A8,8,0,0,0,0,8H0V52.92a8.41,8.41,0,0,0,8.4,8.4H56.17a7.62,7.62,0,0,0,7.62-7.62V46.55H54.92A10.71,10.71,0,0,1,44.21,35.84Z" fill="#104273"/><path id="Path_1603" data-name="Path 1603" d="M54.92,28.11a7.74,7.74,0,0,0-7.74,7.73h0a7.74,7.74,0,0,0,7.74,7.74H66.41V28.11Zm-.49,10.74a3,3,0,1,1,3-3,3,3,0,0,1-3,3Z" fill="#f4c750"/></g></g></g></svg>