<svg xmlns="http://www.w3.org/2000/svg" viewBox="0 0 39.72 39.72"><g id="Layer_2" data-name="Layer 2"><g id="Layer_1-2" data-name="Layer 1"><circle id="Ellipse_404" data-name="Ellipse 404" cx="19.86" cy="19.86" r="19.86" fill="#1aa3f9"/><path id="Path_1816" data-name="Path 1816" d="M20.08,16.33A5.17,5.17,0,0,1,29,11.83,12.81,12.81,0,0,0,32,10.46a5.59,5.59,0,0,1-2.28,2.87,9.73,9.73,0,0,0,2.8-.78A5.4,5.4,0,0,1,30.13,15C31,26.77,18.25,34,8,28.08c0,0,5.09.26,7.24-2.22,0,0-3.13.26-4.7-3.52a3.19,3.19,0,0,0,2.35-.13,5.09,5.09,0,0,1-4-5,3.19,3.19,0,0,0,2.48.58,5,5,0,0,1-1.77-6.78s4.31,5.48,10.5,5.28Z" fill="#fff" fill-rule="evenodd"/></g></g></svg>