<svg xmlns="http://www.w3.org/2000/svg" viewBox="0 0 32.64 32.74"><g id="Layer_2" data-name="Layer 2"><g id="Layer_1-2" data-name="Layer 1"><path id="Path_762" data-name="Path 762" d="M3.14,32.74a8.32,8.32,0,0,1-1.46-.65A3.67,3.67,0,0,1,0,29a9.34,9.34,0,0,1,.75-3.34A15.54,15.54,0,0,1,2.8,21.79a17.42,17.42,0,0,1,2.65-2.91,15.78,15.78,0,0,1,3.74-2.45c.6-.28,1.22-.52,1.84-.78-.17-.16-.34-.33-.52-.48A7.4,7.4,0,0,1,8.78,13a8.07,8.07,0,0,1-.94-2.44,9.66,9.66,0,0,1-.06-3.39A8.63,8.63,0,0,1,13,.68,8.86,8.86,0,0,1,17.21,0a8.29,8.29,0,0,1,4,1.45,8.54,8.54,0,0,1,3.66,5.42,8.88,8.88,0,0,1,.05,3.33,8.62,8.62,0,0,1-1.55,3.64,8.38,8.38,0,0,1-2.73,2.43,8.11,8.11,0,0,1-2.44.93,5.49,5.49,0,0,1-1.14.16,15.41,15.41,0,0,0-5.05.73,13,13,0,0,0-3.95,2.05A16.1,16.1,0,0,0,6.3,21.7a13.31,13.31,0,0,0-3,4.78,20.46,20.46,0,0,0-.62,2,1.26,1.26,0,0,0,.85,1.57.93.93,0,0,0,.29.05c.28,0,.57.06.85.06q6.11,0,12.2,0A1.19,1.19,0,0,1,18,31.37h0a1.39,1.39,0,0,1-.84,1.37Zm13.18-18a6,6,0,1,0-.37,0Z" fill="#f4c750"/><path id="Path_763" data-name="Path 763" d="M32.64,21.82a1.49,1.49,0,0,1-1.45.71c-3.1,0-6.21,0-9.32,0a1.3,1.3,0,0,1-.58-2.47.88.88,0,0,1,.42-.08c3.16,0,6.32,0,9.48,0a1.48,1.48,0,0,1,1.45.72Z" fill="#f4c750"/><path id="Path_764" data-name="Path 764" d="M32.64,26.93a1.49,1.49,0,0,1-1.45.71c-3.1,0-6.21,0-9.32,0a1.3,1.3,0,0,1-.58-2.47,1,1,0,0,1,.42-.08c3.16,0,6.32,0,9.48,0a1.48,1.48,0,0,1,1.45.72Z" fill="#f4c750"/><path id="Path_765" data-name="Path 765" d="M21.4,32.74a6,6,0,0,1-.6-.51,1.31,1.31,0,0,1,.28-1.83,1,1,0,0,1,.22-.13.9.9,0,0,1,.36-.08q5,0,10,0c.5,0,.77.35,1,.7V32l-.76.7Z" fill="#f4c750"/><path id="Path_766" data-name="Path 766" d="M31.87,32.74l.77-.7v.7Z" fill="#f4c750"/></g></g></svg>