<svg xmlns="http://www.w3.org/2000/svg" viewBox="0 0 39.72 39.72"><g id="Layer_2" data-name="Layer 2"><g id="Layer_1-2" data-name="Layer 1"><circle id="Ellipse_402" data-name="Ellipse 402" cx="19.86" cy="19.86" r="19.86" fill="#fe0000"/><path id="Path_1812" data-name="Path 1812" d="M12.57,11.46c2.38-.19,5.18-.28,7.32-.28h0c2.14,0,4.9.1,7.33.28,2.8.24,4.23.72,4.61,3.52a35.78,35.78,0,0,1,.29,4.85h0a35.83,35.83,0,0,1-.29,4.86c-.38,2.85-1.8,3.28-4.61,3.52-2.43.23-5.19.28-7.33.28h0c-2.14,0-4.94,0-7.32-.28-2.81-.24-4.28-.67-4.66-3.52a43.81,43.81,0,0,1-.24-4.86h0A43.75,43.75,0,0,1,7.91,15C8.29,12.18,9.76,11.7,12.57,11.46Z" fill="#fff" fill-rule="evenodd"/><path id="Path_1813" data-name="Path 1813" d="M17.42,16.17l6.37,3.66-6.37,3.71Z" fill="#231f20" fill-rule="evenodd"/></g></g></svg>